<svg id="motherboard" xmlns="http://www.w3.org/2000/svg" viewBox="0 0 512.07 388"><title>motherboard</title><rect x="3.99" y="8" width="503.97" height="375.98" fill="#656d78"/><g opacity="0.5"><path d="M300,296V192a16,16,0,0,1,16-16h-8a16,16,0,0,0-16,16V296a16,16,0,0,0,16,16h8A16,16,0,0,1,300,296Z" fill="#fff"/></g><g opacity="0.2"><path d="M420,192V296a16,16,0,0,1-16,16h8a16,16,0,0,0,16-16V192a16,16,0,0,0-16-16h-8A16,16,0,0,1,420,192Z"/></g><rect x="19.99" y="231.99" width="183.99" height="95.99" fill="#aab2bd"/><rect x="227.98" y="351.98" width="263.98" height="16" fill="#5d9cec"/><rect x="227.98" y="119.99" width="263.98" height="16" fill="#5d9cec"/><rect x="227.98" y="88" width="263.98" height="16" fill="#5d9cec"/><rect x="19.99" y="351.98" width="87.99" height="16" fill="#5d9cec"/><rect x="123.99" y="351.98" width="16" height="16" fill="#aab2bd"/><rect x="155.99" y="351.98" width="16" height="16" fill="#aab2bd"/><rect x="187.98" y="351.98" width="16" height="16" fill="#aab2bd"/><rect x="483.97" y="183.99" width="8" height="143.99" fill="#aab2bd"/><g opacity="0.5"><polygon points="78.43 327.98 103.27 327.98 129 231.99 104.15 231.99 78.43 327.98" fill="#fff"/></g><g opacity="0.5"><polygon points="119.84 327.98 145.56 231.99 137.28 231.99 111.55 327.98 119.84 327.98" fill="#fff"/></g><rect x="19.99" y="64" width="16" height="143.99" fill="#ac92ec"/><rect x="99.99" y="64" width="16" height="143.99" fill="#ac92ec"/><rect x="179.98" y="64" width="16" height="143.99" fill="#ac92ec"/><polygon points="251.98 327.98 243.98 327.98 243.98 159.99 251.98 159.99 267.98 175.99 267.98 311.98 251.98 327.98" fill="#aab2bd"/><path d="M468,192a8,8,0,1,1-8-8A8,8,0,0,1,468,192Z" fill="#aab2bd"/><g opacity="0.5"><path d="M460,192a7.93,7.93,0,0,1,4-6.78,7.79,7.79,0,0,0-4-1.22,8,8,0,0,0,0,16,7.79,7.79,0,0,0,4-1.22A7.91,7.91,0,0,1,460,192Z" fill="#fff"/></g><circle cx="27.99" cy="32" r="8" fill="#aab2bd"/><g opacity="0.5"><path d="M28,32a7.91,7.91,0,0,1,4-6.78A7.79,7.79,0,0,0,28,24a8,8,0,0,0,0,16,7.8,7.8,0,0,0,4-1.23A7.88,7.88,0,0,1,28,32Z" fill="#fff"/></g><circle cx="59.99" cy="32" r="8" fill="#aab2bd"/><g opacity="0.5"><path d="M60,32a7.91,7.91,0,0,1,4-6.78A7.79,7.79,0,0,0,60,24a8,8,0,0,0,0,16,7.8,7.8,0,0,0,4-1.23A7.88,7.88,0,0,1,60,32Z" fill="#fff"/></g><circle cx="91.99" cy="32" r="8" fill="#aab2bd"/><g opacity="0.5"><path d="M92,32a7.93,7.93,0,0,1,4-6.78A7.7,7.7,0,0,0,92,24a8,8,0,0,0,0,16,7.8,7.8,0,0,0,4-1.23A7.91,7.91,0,0,1,92,32Z" fill="#fff"/></g><circle cx="139.99" cy="72" r="8" fill="#aab2bd"/><g opacity="0.5"><path d="M140,72a7.86,7.86,0,0,1,4-6.77A7.8,7.8,0,0,0,140,64a8,8,0,0,0,0,16,7.68,7.68,0,0,0,4-1.23A7.86,7.86,0,0,1,140,72Z" fill="#fff"/></g><circle cx="139.99" cy="103.99" r="8" fill="#aab2bd"/><g opacity="0.5"><path d="M140,104a7.86,7.86,0,0,1,4-6.77A7.8,7.8,0,0,0,140,96a8,8,0,0,0,0,16,7.8,7.8,0,0,0,4-1.23A7.86,7.86,0,0,1,140,104Z" fill="#fff"/></g><circle cx="139.99" cy="135.99" r="8" fill="#aab2bd"/><g opacity="0.5"><path d="M140,136a7.86,7.86,0,0,1,4-6.77,7.68,7.68,0,0,0-4-1.23,8,8,0,0,0,0,16,7.8,7.8,0,0,0,4-1.23A7.86,7.86,0,0,1,140,136Z" fill="#fff"/></g><path d="M468,224a8,8,0,1,1-8-8A8,8,0,0,1,468,224Z" fill="#aab2bd"/><path d="M468,256a8,8,0,1,1-8-8A8,8,0,0,1,468,256Z" fill="#aab2bd"/><path d="M468,288a8,8,0,1,1-8-8A8,8,0,0,1,468,288Z" fill="#aab2bd"/><path d="M468,320a8,8,0,1,1-8-8A8,8,0,0,1,468,320Z" fill="#aab2bd"/><g opacity="0.5"><path d="M460,224a7.91,7.91,0,0,1,4-6.77,7.8,7.8,0,0,0-4-1.23,8,8,0,0,0,0,16,7.79,7.79,0,0,0,4-1.22A7.93,7.93,0,0,1,460,224Z" fill="#fff"/></g><g opacity="0.5"><path d="M460,256a7.91,7.91,0,0,1,4-6.77,7.8,7.8,0,0,0-4-1.23,8,8,0,0,0,0,16,7.8,7.8,0,0,0,4-1.23A7.88,7.88,0,0,1,460,256Z" fill="#fff"/></g><g opacity="0.5"><path d="M460,288a7.88,7.88,0,0,1,4-6.77,7.68,7.68,0,0,0-4-1.23,8,8,0,0,0,0,16,7.8,7.8,0,0,0,4-1.23A7.91,7.91,0,0,1,460,288Z" fill="#fff"/></g><g opacity="0.5"><path d="M460,320a7.93,7.93,0,0,1,4-6.78,7.88,7.88,0,0,0-4-1.22,8,8,0,0,0,0,16,7.8,7.8,0,0,0,4-1.23A7.91,7.91,0,0,1,460,320Z" fill="#fff"/></g><circle cx="67.99" cy="191.99" r="16" fill="#aab2bd"/><g opacity="0.5"><path d="M60,192a16,16,0,0,1,12-15.44,16,16,0,1,0,0,30.87A16,16,0,0,1,60,192Z" fill="#fff"/></g><rect x="115.99" y="24" width="80" height="16" fill="#ffce54"/><polygon points="507.97 40 475.97 72 243.98 72 211.99 40 211.99 8 507.97 8 507.97 40" fill="#ac92ec"/><g opacity="0.3"><polygon points="227.99 8 211.99 8 211.99 40 243.98 72 259.98 72 227.99 40 227.99 8" fill="#fff"/></g><g opacity="0.2"><polygon points="491.97 8 507.97 8 507.97 40 475.97 72 459.97 72 491.97 40 491.97 8"/></g><g opacity="0.2"><rect x="19.99" y="80" width="8" height="111.99"/></g><g opacity="0.2"><rect x="99.99" y="80" width="8" height="111.99"/></g><g opacity="0.2"><rect x="179.98" y="80" width="8" height="111.99"/></g><g opacity="0.3"><rect x="243.98" y="88" width="8" height="16"/></g><g opacity="0.3"><rect x="243.98" y="119.99" width="8" height="16"/></g><g opacity="0.3"><rect x="359.97" y="88" width="8" height="16"/></g><g opacity="0.3"><rect x="359.97" y="119.99" width="8" height="16"/></g><g opacity="0.3"><rect x="243.98" y="351.97" width="8" height="16"/></g><g opacity="0.3"><rect x="359.97" y="351.97" width="8" height="16"/></g><g opacity="0.2"><rect x="131.99" y="159.99" width="32" height="8"/></g><g opacity="0.2"><rect x="131.99" y="183.99" width="32" height="8"/></g><g opacity="0.2"><rect x="451.97" y="159.99" width="40" height="8"/></g><g opacity="0.2"><rect x="75.99" y="64" width="8" height="24"/></g><g opacity="0.2"><rect x="51.99" y="64" width="8" height="24"/></g><g opacity="0.5"><rect x="51.99" y="111.99" width="8" height="40" fill="#fff"/></g><g opacity="0.2"><rect x="75.99" y="111.99" width="8" height="40"/></g><g opacity="0.5"><rect x="243.98" y="159.99" width="8" height="167.99" fill="#fff"/></g><g opacity="0.3"><polygon points="259.98 319.98 267.98 311.98 267.98 175.99 259.98 167.99 259.98 319.98"/></g><g opacity="0.5"><rect x="115.99" y="24" width="8" height="16" fill="#fff"/></g><g opacity="0.2"><rect x="187.98" y="24" width="8" height="16"/></g><g opacity="0.3"><rect x="19.99" y="351.98" width="8" height="16" fill="#fff"/></g><g opacity="0.5"><rect x="123.99" y="351.98" width="8" height="16" fill="#fff"/></g><g opacity="0.5"><rect x="155.99" y="351.98" width="8" height="16" fill="#fff"/></g><g opacity="0.5"><rect x="187.98" y="351.98" width="8" height="16" fill="#fff"/></g><g opacity="0.2"><rect x="99.71" y="351.98" width="8" height="16"/></g><g opacity="0.2"><rect x="3.99" y="8" width="8" height="375.98" fill="#fff"/></g><g opacity="0.3"><polygon points="507.97 383.98 499.97 383.98 499.97 48 507.97 40 507.97 383.98"/></g><path d="M508,388H4a4,4,0,0,1-4-4V8A4,4,0,0,1,8,8V380H508a4,4,0,0,1,0,8Z" fill="#3a3847"/><path d="M212,44a4,4,0,0,1-4-4V8a4,4,0,0,1,8,0V40A4,4,0,0,1,212,44Z" fill="#3a3847"/><path d="M244,76a4,4,0,0,1-2.82-1.17l-32-32a4,4,0,0,1,5.65-5.65l32,32A4,4,0,0,1,244,76Z" fill="#3a3847"/><path d="M508,44a4,4,0,0,1-4-4V8a4,4,0,0,1,8,0V40A4,4,0,0,1,508,44Z" fill="#3a3847"/><path d="M476,76a4,4,0,0,1-2.83-6.83l32-32a4,4,0,1,1,5.8,5.51l-.14.14-32,32A4,4,0,0,1,476,76Z" fill="#3a3847"/><path d="M476,76H244a4,4,0,0,1,0-8H476a4,4,0,0,1,0,8Z" fill="#3a3847"/><path d="M508,12H212a4,4,0,0,1,0-8H508a4,4,0,0,1,0,8Z" fill="#3a3847"/><path d="M196,12H4A4,4,0,0,1,4,4H196a4,4,0,0,1,0,8Z" fill="#3a3847"/><path d="M508,388a4,4,0,0,1-4-4V64a4,4,0,0,1,8,0V384A4,4,0,0,1,508,388Z" fill="#3a3847"/><path d="M468,44H252a4,4,0,0,1,0-8H468a4,4,0,0,1,0,8Z" fill="#3a3847"/><path d="M492,8H476a4,4,0,0,1,0-8h16a4,4,0,0,1,0,8Z" fill="#3a3847"/><path d="M460,8H436a4,4,0,0,1,0-8h24a4,4,0,0,1,0,8Z" fill="#3a3847"/><path d="M420,8H396a4,4,0,0,1,0-8h24a4,4,0,0,1,0,8Z" fill="#3a3847"/><path d="M380,8H348a4,4,0,0,1,0-8h32a4,4,0,0,1,0,8Z" fill="#3a3847"/><path d="M348,8H332a4,4,0,0,1,0-8h16a4,4,0,0,1,0,8Z" fill="#3a3847"/><path d="M316,8h-8a4,4,0,0,1,0-8h8a4,4,0,0,1,0,8Z" fill="#3a3847"/><path d="M292,8H260a4,4,0,0,1,0-8h32a4,4,0,0,1,0,8Z" fill="#3a3847"/><path d="M244,8H228a4,4,0,0,1,0-8h16a4,4,0,0,1,0,8Z" fill="#3a3847"/><path d="M492,108H228a4,4,0,0,1-4-4V88a4,4,0,0,1,4-4H492a4,4,0,0,1,4,4v16A4,4,0,0,1,492,108Zm-260-8H488V92H232Z" fill="#3a3847"/><path d="M244,108a4,4,0,0,1-4-4V88a4,4,0,0,1,8,0v16A4,4,0,0,1,244,108Z" fill="#3a3847"/><path d="M476,108a4,4,0,0,1-4-4V88a4,4,0,0,1,8,0v16A4,4,0,0,1,476,108Z" fill="#3a3847"/><path d="M360,108a4,4,0,0,1-4-4V88a4,4,0,0,1,8,0v16A4,4,0,0,1,360,108Z" fill="#3a3847"/><path d="M492,140H228a4,4,0,0,1-4-4V120a4,4,0,0,1,4-4H492a4,4,0,0,1,4,4v16A4,4,0,0,1,492,140Zm-260-8H488v-8H232Z" fill="#3a3847"/><path d="M244,140a4,4,0,0,1-4-4V120a4,4,0,0,1,8,0v16A4,4,0,0,1,244,140Z" fill="#3a3847"/><path d="M476,140a4,4,0,0,1-4-4V120a4,4,0,0,1,8,0v16A4,4,0,0,1,476,140Z" fill="#3a3847"/><path d="M360,140a4,4,0,0,1-4-4V120a4,4,0,0,1,8,0v16A4,4,0,0,1,360,140Z" fill="#3a3847"/><path d="M492,372H228a4,4,0,0,1-4-4V352a4,4,0,0,1,4-4H492a4,4,0,0,1,4,4v16A4,4,0,0,1,492,372Zm-260-8H488v-8H232Z" fill="#3a3847"/><path d="M244,372a4,4,0,0,1-4-4V352a4,4,0,0,1,8,0v16A4,4,0,0,1,244,372Z" fill="#3a3847"/><path d="M476,372a4,4,0,0,1-4-4V352a4,4,0,0,1,8,0v16A4,4,0,0,1,476,372Z" fill="#3a3847"/><path d="M360,372a4,4,0,0,1-4-4V352a4,4,0,0,1,8,0v16A4,4,0,0,1,360,372Z" fill="#3a3847"/><path d="M412.21,196a4,4,0,0,1,0-8h.08a4,4,0,0,1,0,8Z" fill="#3a3847"/><path d="M308.21,196a4,4,0,0,1,0-8h.07a4,4,0,0,1,0,8Z" fill="#3a3847"/><path d="M412.21,300a4,4,0,0,1,0-8h.08a4,4,0,0,1,0,8Z" fill="#3a3847"/><path d="M308.21,300a4,4,0,0,1,0-8h.07a4,4,0,0,1,0,8Z" fill="#3a3847"/><path d="M460,236a12,12,0,1,1,12-12A12,12,0,0,1,460,236Zm0-16a4,4,0,1,0,4,4A4,4,0,0,0,460,220Z" fill="#3a3847"/><path d="M460,204a12,12,0,1,1,12-12h0A12,12,0,0,1,460,204Zm0-16a4,4,0,1,0,4,4A4,4,0,0,0,460,188Z" fill="#3a3847"/><path d="M460,268a12,12,0,1,1,12-12A12,12,0,0,1,460,268Zm0-16a4,4,0,1,0,4,4A4,4,0,0,0,460,252Z" fill="#3a3847"/><path d="M460,300a12,12,0,1,1,12-12A12,12,0,0,1,460,300Zm0-16a4,4,0,1,0,4,4A4,4,0,0,0,460,284Z" fill="#3a3847"/><path d="M460,332a12,12,0,1,1,12-12A12,12,0,0,1,460,332Zm0-16a4,4,0,1,0,4,4A4,4,0,0,0,460,316Z" fill="#3a3847"/><path d="M484,332a4,4,0,0,1-4-4V184a4,4,0,0,1,8,0V328A4,4,0,0,1,484,332Z" fill="#3a3847"/><path d="M492,188h-8a4,4,0,0,1,0-8h8a4,4,0,0,1,0,8Z" fill="#3a3847"/><path d="M492,332h-8a4,4,0,0,1,0-8h8a4,4,0,0,1,0,8Z" fill="#3a3847"/><path d="M492,164H452a4,4,0,0,1,0-8h40a4,4,0,0,1,0,8Z" fill="#3a3847"/><path d="M452,172a4,4,0,0,1-4-4v-8a4,4,0,0,1,8,0v8A4,4,0,0,1,452,172Z" fill="#3a3847"/><path d="M492,172a4,4,0,0,1-4-4v-8a4,4,0,0,1,8,0v8A4,4,0,0,1,492,172Z" fill="#3a3847"/><path d="M252,332h-8a4,4,0,0,1-4-4V160a4,4,0,0,1,4-4h8a4,4,0,0,1,2.83,1.17l16,16A4,4,0,0,1,272,176V312a4,4,0,0,1-1.17,2.82l-16,16A4,4,0,0,1,252,332Zm-4-8h2.35L264,310.32V177.64L250.33,164H248Z" fill="#3a3847"/><path d="M228,332a4,4,0,0,1-4-4V160a4,4,0,0,1,8,0V328A4,4,0,0,1,228,332Z" fill="#3a3847"/><path d="M28,44A12,12,0,1,1,40,32,12,12,0,0,1,28,44Zm0-16a4,4,0,1,0,4,4A4,4,0,0,0,28,28Z" fill="#3a3847"/><path d="M60,44A12,12,0,1,1,72,32,12,12,0,0,1,60,44Zm0-16a4,4,0,1,0,4,4A4,4,0,0,0,60,28Z" fill="#3a3847"/><path d="M92,44a12,12,0,1,1,12-12A12,12,0,0,1,92,44Zm0-16a4,4,0,1,0,4,4A4,4,0,0,0,92,28Z" fill="#3a3847"/><path d="M140,84a12,12,0,1,1,12-12A12,12,0,0,1,140,84Zm0-16a4,4,0,1,0,4,4A4,4,0,0,0,140,68Z" fill="#3a3847"/><path d="M140,116a12,12,0,1,1,12-12A12,12,0,0,1,140,116Zm0-16a4,4,0,1,0,4,4A4,4,0,0,0,140,100Z" fill="#3a3847"/><path d="M140,148a12,12,0,1,1,12-12A12,12,0,0,1,140,148Zm0-16a4,4,0,1,0,4,4A4,4,0,0,0,140,132Z" fill="#3a3847"/><path d="M196,44H116a4,4,0,0,1-4-4V24a4,4,0,0,1,4-4h80a4,4,0,0,1,4,4V40A4,4,0,0,1,196,44Zm-76-8h72V28H120Z" fill="#3a3847"/><path d="M36,212H20a4,4,0,0,1-4-4V64a4,4,0,0,1,4-4H36a4,4,0,0,1,4,4V208A4,4,0,0,1,36,212Zm-12-8h8V68H24Z" fill="#3a3847"/><path d="M36,196H20a4,4,0,0,1,0-8H36a4,4,0,0,1,0,8Z" fill="#3a3847"/><path d="M36,84H20a4,4,0,0,1,0-8H36a4,4,0,0,1,0,8Z" fill="#3a3847"/><path d="M116,212H100a4,4,0,0,1-4-4V64a4,4,0,0,1,4-4h16a4,4,0,0,1,4,4V208A4,4,0,0,1,116,212Zm-12-8h8V68h-8Z" fill="#3a3847"/><path d="M116,196H100a4,4,0,0,1,0-8h16a4,4,0,0,1,0,8Z" fill="#3a3847"/><path d="M116,84H100a4,4,0,0,1,0-8h16a4,4,0,0,1,0,8Z" fill="#3a3847"/><path d="M196,212H180a4,4,0,0,1-4-4V64a4,4,0,0,1,4-4h16a4,4,0,0,1,4,4V208A4,4,0,0,1,196,212Zm-12-8h8V68h-8Z" fill="#3a3847"/><path d="M196,196H180a4,4,0,0,1,0-8h16a4,4,0,0,1,0,8Z" fill="#3a3847"/><path d="M196,84H180a4,4,0,0,1,0-8h16a4,4,0,0,1,0,8Z" fill="#3a3847"/><path d="M68,212a20,20,0,1,1,20-20A20,20,0,0,1,68,212Zm0-32a12,12,0,1,0,12,12,12,12,0,0,0-12-12Z" fill="#3a3847"/><path d="M52,92a4,4,0,0,1-4-4V64a4,4,0,0,1,8,0V88A4,4,0,0,1,52,92Z" fill="#3a3847"/><path d="M60,68H52a4,4,0,0,1,0-8h8a4,4,0,0,1,0,8Z" fill="#3a3847"/><path d="M60,92H52a4,4,0,0,1,0-8h8a4,4,0,0,1,0,8Z" fill="#3a3847"/><path d="M76,92a4,4,0,0,1-4-4V64a4,4,0,0,1,8,0V88A4,4,0,0,1,76,92Z" fill="#3a3847"/><path d="M84,68H76a4,4,0,0,1,0-8h8a4,4,0,0,1,0,8Z" fill="#3a3847"/><path d="M84,92H76a4,4,0,0,1,0-8h8a4,4,0,0,1,0,8Z" fill="#3a3847"/><path d="M164,148a4,4,0,0,1-4-4V64a4,4,0,0,1,8,0v80A4,4,0,0,1,164,148Z" fill="#3a3847"/><path d="M132,172a4,4,0,0,1-4-4v-8a4,4,0,0,1,8,0v8A4,4,0,0,1,132,172Z" fill="#3a3847"/><path d="M164,164H132a4,4,0,0,1,0-8h32a4,4,0,0,1,0,8Z" fill="#3a3847"/><path d="M164,172a4,4,0,0,1-4-4v-8a4,4,0,0,1,8,0v8A4,4,0,0,1,164,172Z" fill="#3a3847"/><path d="M132,196a4,4,0,0,1-4-4v-8a4,4,0,0,1,8,0v8A4,4,0,0,1,132,196Z" fill="#3a3847"/><path d="M164,188H132a4,4,0,0,1,0-8h32a4,4,0,0,1,0,8Z" fill="#3a3847"/><path d="M164,196a4,4,0,0,1-4-4v-8a4,4,0,0,1,8,0v8A4,4,0,0,1,164,196Z" fill="#3a3847"/><path d="M164,212H132a4,4,0,0,1,0-8h32a4,4,0,0,1,0,8Z" fill="#3a3847"/><path d="M204,332H20a4,4,0,0,1-4-4V232a4,4,0,0,1,4-4H204a4,4,0,0,1,4,4v96A4,4,0,0,1,204,332ZM24,324H200V236H24Z" fill="#3a3847"/><path d="M44,316a4,4,0,0,1-4-4V248a4,4,0,0,1,8,0v64A4,4,0,0,1,44,316Z" fill="#3a3847"/><path d="M180,316a4,4,0,0,1-4-4V248a4,4,0,0,1,8,0v64A4,4,0,0,1,180,316Z" fill="#3a3847"/><path d="M20,372a4,4,0,0,1-4-4V352a4,4,0,0,1,8,0v16A4,4,0,0,1,20,372Z" fill="#3a3847"/><path d="M108,356H20a4,4,0,0,1,0-8h88a4,4,0,0,1,0,8Z" fill="#3a3847"/><path d="M108,372a4,4,0,0,1-4-4V352a4,4,0,0,1,8,0v16A4,4,0,0,1,108,372Z" fill="#3a3847"/><path d="M124,372a4,4,0,0,1-4-4V352a4,4,0,0,1,8,0v16A4,4,0,0,1,124,372Z" fill="#3a3847"/><path d="M140,356H124a4,4,0,0,1,0-8h16a4,4,0,0,1,0,8Z" fill="#3a3847"/><path d="M140,372a4,4,0,0,1-4-4V352a4,4,0,0,1,8,0v16A4,4,0,0,1,140,372Z" fill="#3a3847"/><path d="M156,372a4,4,0,0,1-4-4V352a4,4,0,0,1,8,0v16A4,4,0,0,1,156,372Z" fill="#3a3847"/><path d="M172,356H156a4,4,0,0,1,0-8h16a4,4,0,0,1,0,8Z" fill="#3a3847"/><path d="M172,372a4,4,0,0,1-4-4V352a4,4,0,0,1,8,0v16A4,4,0,0,1,172,372Z" fill="#3a3847"/><path d="M188,372a4,4,0,0,1-4-4V352a4,4,0,0,1,8,0v16A4,4,0,0,1,188,372Z" fill="#3a3847"/><path d="M204,356H188a4,4,0,0,1,0-8h16a4,4,0,0,1,0,8Z" fill="#3a3847"/><path d="M204,372a4,4,0,0,1-4-4V352a4,4,0,0,1,8,0v16A4,4,0,0,1,204,372Z" fill="#3a3847"/><path d="M92,372H36a4,4,0,0,1,0-8H92a4,4,0,0,1,0,8Z" fill="#3a3847"/></svg>