<svg id="tv" xmlns="http://www.w3.org/2000/svg" viewBox="0 0 446.47 384.45">
	<title>tv</title>
	<path d="M234.15,83.84a23.81,23.81,0,0,0-23.82,23.81H258A23.81,23.81,0,0,0,234.15,83.84Z"
		transform="translate(-10.91 -83.84)" fill="#64798a" />
	<path d="M40.68,414.51v35.92a17.85,17.85,0,0,0,17.85,17.86H409.76a17.86,17.86,0,0,0,17.86-17.86V414.51Z"
		transform="translate(-10.91 -83.84)" fill="#3a556a" />
	<path
		d="M444.89,441H23.4a12.49,12.49,0,0,1-12.49-12.49V132.05A12.49,12.49,0,0,1,23.4,119.56H444.89a12.49,12.49,0,0,1,12.49,12.49V428.53A12.49,12.49,0,0,1,444.89,441Z"
		transform="translate(-10.91 -83.84)" fill="#64798a" />
	<rect x="351.23" y="208.31" width="71.44" height="8.93" fill="#d5d6db" />
	<rect x="351.23" y="235.1" width="71.44" height="8.93" fill="#d5d6db" />
	<rect x="351.23" y="261.88" width="71.44" height="8.93" fill="#d5d6db" />
	<rect x="351.23" y="288.67" width="71.44" height="8.93" fill="#d5d6db" />
	<path d="M293.68,119.56H174.62v-5.37a12.49,12.49,0,0,1,12.49-12.49h94.08a12.49,12.49,0,0,1,12.49,12.49v5.37Z"
		transform="translate(-10.91 -83.84)" fill="#3a556a" />
</svg>