<svg id="among" data-name="Слой 1" xmlns="http://www.w3.org/2000/svg" viewBox="0 0 573.08 730.94">
	<title>among</title>
	<path
		d="M284,414.21H279.8l-13.59.28-14.2.66-10.36.8-7.52.85-7,1.13-6.55,1.58-5.83,1.83-5.68,2.14-6.42,2.8-4.77,2.34-3.54,1.88-5.65,3.31L191,415.86a208.92,208.92,0,0,1,7.06-27.8A101.62,101.62,0,0,1,208,365.58l1.75-2.29,1.12-1.09,1-.67,4.27-1.41L235.5,355l31-7.43,21.73-4.67,2-.34,1.58-.18.36,0a1.53,1.53,0,0,1,.39.13,1,1,0,0,1,.38.36,1.52,1.52,0,0,1,.26.58,6.24,6.24,0,0,1,.12,1.52c0,.54-.17,1.71-.17,1.71l-1.23,9-1.59,11.63-1.52,11-.75,6.35-1.17,9-1,7.06-.77,5.41-.49,3.26Z"
		transform="translate(-162.62 -109.79)" fill="var(--color-1)" />
	<path
		d="M191.21,420.6a146.72,146.72,0,0,1,35.94-11.94c19.09-3.39,58.34-3.23,58.34-3.23l-2,11-2.62,20.23-1.4,20.53-.64,22.13-.16,24.12.13,33,.6,25.31,1.1,20.12,2.35,25.94,2.64,24,3.12,33,1.61,16.28.1,1.5,0,1L290,684.8l-.54,1-.76.56-1.08.21-2.3.29-17.73,1.78-29,1.5a72,72,0,0,1-11.21-.73c-3.92-.8-9.15-2.68-11.79-5.09s-3.54-4.7-8.06-14.74c-3.32-7.37-13.85-53.12-13.29-55.11q-3.18-17.44-5.37-38c-.4.17-3.28-34.13-2.73-58.93.54-24.64,1.11-58,1.11-58l1.44-21.63Z"
		transform="translate(-162.62 -109.79)" fill="var(--color-2)" />
	<polygon
		points="296.95 165.97 299 164.81 302.99 163.42 307.75 162.03 314.37 160.52 325.38 158.57 337.97 156.78 353.14 154.96 373.92 152.85 397.66 150.6 417.9 150.27 447.39 150.45 466.18 151.03 472.26 151.7 477.09 152.73 488.5 156.58 500.51 162.31 504.43 164.59 510.19 168.34 517.77 174.03 522.65 178.19 528.38 183.67 532.02 187.52 538.97 195.96 542.51 200.97 546.2 206.97 548.82 211.98 551.82 219.05 553.03 222.67 554.21 227.25 554.76 230.27 555.35 235.8 555.61 241.39 555.46 242.72 555.21 243.73 554.95 244.38 554.67 244.93 554.25 245.58 553.85 246.09 553.43 246.57 552.74 247.3 551.32 248.66 550.12 249.74 549.35 250.38 548.66 250.91 547.05 252.08 545.89 252.87 542.83 254.78 540.24 256.26 536.66 258.17 533.8 259.59 530.73 261.02 528.28 262.11 525.17 263.42 521.94 264.7 517.75 266.24 513.53 267.64 511.48 268.26 508.29 269.13 503.22 270.32 498.56 271.25 495.8 271.74 489.87 272.73 484.52 273.53 477.69 274.46 473.9 274.94 467.96 275.64 457.66 276.72 446.09 277.73 437.38 278.32 433.9 278.48 427.95 278.57 422.84 278.54 412.32 278.25 398.62 277.51 383.47 276.24 377.31 275.54 371.64 274.75 366.92 273.9 361.68 272.55 356.74 270.94 352.7 269.34 347.75 267.02 342.04 263.74 337.09 260.32 329.66 253.96 322.12 245.54 313.31 232.16 306.5 217.65 300.24 198.41 298.28 190.32 296.01 179.17 295.04 173.08 294.93 170.7 295.09 169.01 295.39 168 295.8 167.2 296.19 166.68 296.95 165.97"
		fill="#8cc0d6" />
	<path
		d="M447.89,248.41s-.07,0-.07,0l0,0,.09,0,.12,0s0,0,0,0l.14,0,.18-.06.18,0,.15,0,.2-.05c1.24-.31,3.81-.93,9.06-2.12h.07c3.76-.79,4.5-1,7-1.59l.12,0,.51-.11,1-.22.69-.15,2-.43,2.26-.48.08,0c4-.84,6.88-1.4,11.26-2.25l4.26-.82.32-.06c10.78-1.87,20.86-3.75,27-4.86l1.79-.31.82-.14.85-.15,1.23-.2.1,0,.82-.13.34-.05,1.46-.24H522l.87-.14h0c3.86-.6,5.17-.73,10-1.5,3-.49,4.86-.81,6.74-1.16h0c8.15-1.3,15-2.42,20.21-3.25l.71-.11,2.39-.39.51-.08.49-.08,3.28-.55,1.07-.17.68-.11,1.79-.29.34-.06.28,0c1.12-.16,2.23-.29,3.16-.38l1.27-.12.73-.06,2.91-.15.66,0,.4,0,1.42-.08.49,0,.32,0,2.41-.14c2.51-.15,4.57-.29,6-.38h0l1.72-.09,1.62-.07.77,0,2.26-.07,2.93-.07,3.23-.05h0c1.76.05,2.27,0,5.1,0H611c3.78,0,6.11.16,7.63.28l1.32.13c.69.09,1.65.22,2.78.41l1.87.34.2,0,.1,0,.57.12.25.05.45.1.3.07.9.22.91.24.55.15.31.09h0l.22.07.1,0,.53.17a1.43,1.43,0,0,1,.27.09l.53.18.66.23.7.26,1.1.43,2.9,1.19.35.14.53.21,0,0,.18.06.08,0,.09,0c.19.07.38.14.47.06a.22.22,0,0,0,.05-.08.57.57,0,0,0,0-.31,14.17,14.17,0,0,0-1.47-2.94c-.14-.26-.31-.53-.48-.82s-.36-.61-.61-1c-.12-.2-.25-.42-.41-.67l-.49-.78c-.36-.56-.73-1.15-1.13-1.76-.16-.26-.34-.53-.52-.8l-.2-.31c-.56-.87-1.17-1.78-1.81-2.73-.27-.41-.55-.83-.84-1.25l-.35-.52-.91-1.33-1.35-2-.32-.45c-.1-.15-.21-.31-.33-.47s-.27-.39-.41-.59c-.42-.6-.85-1.2-1.29-1.81l-.21-.3-.13-.18-.29-.4c-1.13-1.58-2.3-3.16-3.46-4.71l-.43-.57c-.76-1-1.53-2-2.28-3-.51-.66-1-1.3-1.56-2-1.34-1.66-2.63-3.22-3.86-4.59-1-1.1-1.87-2.08-2.72-2.92h0l-.72-.72-.29-.28c-1.15-1.14-2.1-2-2.75-2.58l-.37-.34-.63-.56-.37-.32-.35-.32c-1.77-1.55-3.28-2.78-4.21-3.52,0,0-1-.75-1.93-1.49-2-1.51-4.18-3-6.37-4.46-.25-.18-.51-.35-.77-.51-1.79-1.2-5.31-3.48-10.17-6.17l-.17-.09c-1.81-1-2.94-1.64-2.94-1.64-2.1-1.08-4.12-2.06-6.06-3-.61-.29-1.21-.57-1.8-.83l-.55-.25-.55-.24-.13-.06-.69-.3c-.77-.35-1.52-.67-2.25-1l-.42-.18c-.94-.4-1.85-.77-2.72-1.11l-.85-.34-.87-.34-.94-.36-.69-.26-1.62-.6c-.89-.33-1.75-.63-2.59-.92l0,0c-3.37-1.17-6.49-2.14-9.82-3.1-1.25-.37-2.46-.71-3.63-1l-2.27-.64-1.16-.32-2.3-.62c-3.56-1-8.19-2.21-14-3.54l-.43-.1c-4.27-1-8.37-2-12.42-2.74l-1.37-.27-.22,0a129.41,129.41,0,0,0-13.08-1.87l-1.05-.1-.33,0-1.49-.11-.46,0-.7,0a6,6,0,0,0-.61,0c-1.4-.09-2.81-.16-4.25-.19-.8,0-1.59,0-2.4,0h-.68c-1.24,0-2.56,0-3.94,0-4.42.05-11,.6-19.25,1.35-24.49,2.22-42.62,8.88-58.33,21.18-10.88,8.59-28,29.48-35.21,43.11-3,5.63-6.8,12-8.16,14.07-4.69,6.52-16.63,34.07-24.18,55.55-9.22,26.52-18.59,61.62-22.52,84.44-8.16,48.44-13.3,115-11.48,150.35,2.72,52.29,12.69,167.54,17.37,201.47,3.33,24.44,7.56,67.69,7.56,78.36,0,8.44-.6,8.15,20.4,10.37,16.93,1.78,86,2.67,92.48,1l4.84-1,.15-29.63c0-31.25,2.87-59.4,7-69.62,4.69-11.11,3-11,81.9-11.41,41.26-.29,69.82.15,69.82.89,0,4.59-25.24,15.26-46.39,19.56-5.29,1-9.52,2.66-9.52,3.55s2.41,17.92,5.29,37.92,5.59,39,6,42.37l.91,6.07,13.75,1a371.7,371.7,0,0,0,51.53,0l11.48-1,2.27-6.81c3-9,4.68-18.67,8.46-45.33,1.66-12.3,3.48-23.26,3.78-24.44.76-2.52,4.68-33.18,10.43-82.22,2.67-22.82,4.12-34.22,5.44-44.44.31-2.41.76-5.87,1.31-10.13h0l.3-.45c1.68-13,3.81-29.82,6.17-49.5.89-7.42,1.76-14.39,2.55-21.88a1.11,1.11,0,0,1,0-.17,359.73,359.73,0,0,0,2.64-35.93q0-.58,0-1.11c.06-1.79.07-3.17.08-4.24.07-6.68-.1-12.77-.37-18.14l0-.62q-.07-1.5-.18-3c0-.1,0-.2,0-.3,0-.76-.1-1.5-.16-2.22q0-.41-.06-.81-.23-3.08-.48-5.67h0l-10.88,3-.5.15-.14,0c-1.38.37-2.66.7-3.52.91l-.45.11c-1.05.24-2.09.43-3.18.59l-1.2.16-.62.07-1.39.13-1,.08-2.12.14-2.74.14-.58,0h0c-3.1.14-5.37.22-6.86.26H641l-3.5.05h-.22c-5.15,0-8.21.06-10.61.11l-1.45,0-8.56.09c-1.42,0-4.58,0-8.81,0h-.49c-3,0-12.34-.12-29.83-.33h-.35l-1.32,0c-4.19-.09-7.71-.19-11-.34l-.68,0-1-.05-.42,0-1.19-.06-1.41-.09-.67,0-1.27-.09L556.6,450l-.6,0-.91-.07-.8-.07c-2.78-.24-5.44-.51-8.24-.85l-1.79-.22c-5.46-.69-11.61-1.6-20.15-2.87l-1.1-.16-1.62-.25c-11-1.69-16.52-2.55-18.48-2.93a156.61,156.61,0,0,1-19-4.49l-.25-.08a164.67,164.67,0,0,1-21.57-9.25l-.31-.16-.46-.24c-3.12-1.64-6.32-3.37-9.54-5.4l-1-.65s-1-.64-2.28-1.52c-1.91-1.34-3.83-2.81-5.74-4.45-5.21-4.77-13.24-14-19.92-27.93-.2-.42-.4-.83-.59-1.24l-.3-.66a109.76,109.76,0,0,1-7.28-22.63c-.1-.47-.19-.93-.28-1.38s-.22-1.15-.32-1.7c-.53-3-.9-5.62-1.23-7.9,0-.31-.09-.62-.13-.93l0-.24c-.09-.68-.17-1.34-.25-2-.05-.39-.09-.78-.14-1.17-.78-7-1.07-13.59-1.09-14.07-.17-3.8-.16-6.68-.15-12.45,0-3.34,0-6.26.09-8.81l0-1.06c0-.68.08-1.71.11-3.25,0-.3,0-.62,0-1,0-.21,0-.41,0-.61s0-.42,0-.65c0-.73.06-1.42.09-2.05,0-.36,0-.7.06-1s0-.45,0-.65c0-.37,0-.71.07-1,.12-1.52.23-2.68.33-3.58s.19-1.51.26-1.95c.2-1.37.43-2.66.66-3.82q.08-.44.18-.9c.14-.72.29-1.38.43-2,.06-.3.14-.61.21-.92s.2-.82.28-1.16.13-.5.19-.71l.09-.34c0-.1.06-.19.08-.28.12-.45.27-1,.47-1.68.12-.43.27-.91.43-1.42a71.67,71.67,0,0,1,2.74-7.15c.25-.55.52-1.13.81-1.73l.18-.39c.24-.49.48-1,.75-1.48l.57-1.1c.3-.57.62-1.14,1-1.72l.33-.57c.43-.73.89-1.47,1.37-2.18.16-.24.33-.48.49-.7l.42-.59,0,0c.23-.31.44-.58.6-.81.37-.48.61-.77.61-.77.17-.22.23-.28.47-.57l.27-.32.42-.5.47-.55a3.3,3.3,0,0,0,.27-.33l.07-.08.25-.3c.27-.32.47-.57.65-.8l.19-.22.41-.49c.17-.18.33-.37.48-.55l.06-.07a.6.6,0,0,0,.11-.12l.45-.51c.11-.11.21-.23.3-.34l.26-.29c.53-.59,1-1.17,1.49-1.69l.35-.4.19-.21,0-.05c.17-.17.32-.34.49-.52l.21-.22.08-.08.21-.21a14.77,14.77,0,0,1,1.32-1.19l.18-.13a11.57,11.57,0,0,1,2.13-1.09l.21-.09,0,0c4.23-1.48,5.93-2.06,6.55-2.27l.42-.13.53-.17,1.21-.36.36-.11C447.52,248.5,447.89,248.41,447.89,248.41Zm286.68,74.74c2.22,13.92,1,41.48-2.37,56.14-3,12.89-11.26,30.52-18.08,38.52-5.92,6.81-6.07,8-7.85,52-1.33,34.81-2.07,42.37-7.4,89.48-1.63,13.77-4.3,39.55-5.93,57-5.48,57.62-15.11,138.21-19.26,161.76-2.66,14.52-7.4,31-11.11,38.07-4,7.85-11.55,15.56-17.48,17.78-2.37.89-24.59,1.92-51.84,2.52-44.44.74-48,.59-52.89-1.93a22.67,22.67,0,0,1-7.7-7.26c-4.59-7.85-8.89-33.92-13.93-84.44l-2.66-25.47-17.78-.6c-9.92-.44-19-1.18-20.14-1.77-1.93-.75-2.23,5.33-2.23,50.51,0,48.59-.14,51.85-3,57.48-4,8-17.63,15-33.33,17-15.26,2.08-93.47-.59-107.1-3.55-14.37-3.26-25-8.45-29.92-14.82-4.45-5.92-4.3-4.89-11.56-75.69l-3.26-32.59-3.7.14c-2.07,0-12.89.89-24.15,1.93-32,2.81-49-1-63.84-14.67-13-12-19-26.66-26.07-63.69-5.93-31.7-7.41-53-7.41-110.36,0-91,5.48-132.88,21.33-163,12-22.82,24-28,85.92-36.74l23.7-3.26,1.93-8.15c3.4-13.77,16.73-54.81,22.81-70.06,24.14-60.74,59.55-106.36,94.8-122.36,12.6-5.78,28.3-10.37,40-11.85,31.41-4.15,62.66,0,107.25,14.07,37.18,11.85,70.81,35.55,88.88,62.81,7.56,11.4,18.22,32.59,22.81,45.33,3,8,4.3,9.77,11,14.07,10.51,6.81,31.85,28.59,37.92,38.81A100.28,100.28,0,0,1,734.57,323.15Zm-27.31,28.7c2.22-4.34,1.89-8.81,1-13.28-3.29-16.87-13.63-30.38-17.37-35a119.59,119.59,0,0,0-13.27-13.79,111.45,111.45,0,0,0-20.43-15.58A96.68,96.68,0,0,0,631.94,264c-9-2.19-17.47-2.17-34-2-14.38.11-25.31.84-39.32,1.79-9.73.66-17,1.3-31.59,2.59-39.21,3.48-20.86,2.75-40,4.55a145.91,145.91,0,0,0-14.51,2.76c-7.16,1.6-9,2.36-10.35,4.05-2,2.45-2,5.73-.67,13.35a142.37,142.37,0,0,0,4.76,19.67c4.41,12.93,6.62,19.39,10,26.05,3.53,6.85,7.62,14.83,14.81,22.3,3.17,3.29,11.78,11.51,30.3,18,5.38,1.89,19.06,6.28,72.68,5.36,28.7-.49,40.85-2,49-3.32,19.25-3,30-6.9,36.77-9.7a136.62,136.62,0,0,0,21.44-11.24A17,17,0,0,0,707.26,351.85Zm-420.65,3.44c.59-3,.29-4.14-1.19-4-5.78.3-64.73,12.89-67.7,14.52-6.51,3.41-16.88,31-18.81,50.22-.59,4.59-1.63,13-2.37,18.81-2.22,17.78-3.26,90.07-1.63,117.77a596.16,596.16,0,0,0,12.89,92.14c7.41,32.44,10.67,36.89,27.11,37.92,7.85.59,31.4-1.18,46.22-3.41,1.48-.14,2.07-1.77,1.92-4.59-1.48-16.88-3.85-45-6.66-75.4-2.52-28.59-3.26-46.36-3.26-91.1-.15-54.81,1.18-77.62,6.51-106.66.75-4.44,2.52-15.7,3.71-25S286.16,357.66,286.61,355.29Z"
		transform="translate(-162.62 -109.79)" />
	<path
		d="M677.28,457.71c.27,5.37.44,11.46.37,18.14,0,1.07,0,2.45-.08,4.24.15-7.71,0-14.11-.12-18.52C677.4,460.3,677.35,459,677.28,457.71Z"
		transform="translate(-162.62 -109.79)" fill="var(--color-1)" />
	<path
		d="M677.45,461.57c.15,4.41.27,10.81.12,18.52q0,.53,0,1.11c-.13,3.89-.4,9.43-1,17.22-.5,6.85-1.07,12.94-1.67,18.71a1.11,1.11,0,0,0,0,.17c-3.25,27.05-6.9,55.43-9,71.83h0a250.22,250.22,0,0,1-30,35.48c-31.71,31-70,27-70,27S498.4,650.32,449.16,646,385.3,630.4,385.3,630.4s-33.7-12.25-41.36-84.25-3.58-40.85-5.62-97.79,5.62-99.83,10.47-146.55S373,206.49,373,206.49a220.65,220.65,0,0,1,17.89-25.26c7.15-8.71,11.45-12.53,12.92-13.8a91.39,91.39,0,0,1,17.67-12.06,102.31,102.31,0,0,1,20.14-7.69,120,120,0,0,1,14.83-2.93,167.69,167.69,0,0,1,26.22-2.18h.68c.81,0,1.6,0,2.4,0,1.61.05,3,.12,4.25.19l.61,0,.7,0,.46,0,1.49.11.33,0,1.05.1c4.43.42,8.74,1.06,13.08,1.87l.22,0,1.37.27c3.47.7,7.12,1.53,11.38,2.5l1,.24.43.1c3.56.87,7.24,1.81,11.11,2.79l2.88.75,2.3.62.12,0,3.31.92c1.17.33,2.38.67,3.63,1,3,.88,6.3,1.89,9.82,3.1l0,0,2.59.92,1.62.6.69.26.94.36.87.34.85.34c.87.34,1.78.71,2.72,1.11l.42.18c.73.3,1.48.62,2.25,1l.69.3.13.06.55.24.55.25c.59.26,1.19.54,1.8.83,3.35,1.57,6.37,3.14,9,4.6l.17.09c2.53,1.44,6.31,3.66,10.17,6.17.26.16.52.33.77.51A150.71,150.71,0,0,1,605,185.4l.37.32.63.56.37.34c.77.7,1.74,1.6,2.75,2.58l.29.28.72.72.76.79c.73.76,1.38,1.46,2,2.13,1.23,1.37,2.52,2.93,3.86,4.59l1.56,2c.75,1,1.52,2,2.28,3l.43.57c1.16,1.55,2.33,3.13,3.46,4.71l.29.4.13.18.21.3c.44.61.87,1.21,1.29,1.81l.41.59c.12.16.23.32.33.47l.32.45,1.35,2,.91,1.33.35.52.84,1.25c.64.95,1.25,1.86,1.81,2.73.06.09.12.2.2.31l.52.8c.4.61.77,1.2,1.13,1.76.16.27.33.53.49.78l.41.67c.22.35.42.69.61,1s.34.56.48.82c.63,1.11,1.56,2.83,1.44,3.25a.22.22,0,0,1-.05.08c-.07.06-.24,0-.56-.1l-.08,0-.22-.08-.53-.21-.35-.14-2.9-1.19-1.1-.43-.7-.26-.66-.23-.53-.18a1.43,1.43,0,0,0-.27-.09l-.51-.17h0l-.1,0a1,1,0,0,0-.22-.07h0l-.31-.09-.55-.15-.91-.24-.9-.22-.3-.07-.45-.1-.25-.05-.57-.12-.1,0-.2,0-1.87-.34c-.68-.12-1.45-.24-2.21-.34l-.57-.07-1.32-.13c-2.25-.22-4.24-.26-7.63-.28H608.8l-5.1,0h0c-.5,0-2.18-.07-4.44,0l-4,.15-.77,0-1.62.07-1.72.09h0c-2.21.1-3.5.17-5.07.29-.89.06-1.86.14-3.3.23l-.32,0h-.21l-.28,0-1.42.08-.4,0-.66,0c-.48,0-1.38,0-2.72.13l-.19,0-.73.06h-.19c-1.6.12-2.75.26-4.24.49l-.28,0-.34.06c-.71.1-1.51.24-2.47.4l-1.07.17c-.75.11-1.22.17-1.78.22-.92.08-1.67.09-2.14.09a.45.45,0,0,0,.15.32l-.51.08-2.39.39-.71.11c-6.22,1-6.83.91-14.2,2.18l-6,1.07h0l-1.44.23-15.26,2.43h0l-.87.14h-.09l-1.8.29-.82.13-.1,0-1.23.2-.85.15-.82.14-1.79.31L508.13,236c-3.65.64-7.67,1.35-13,2.33l-7.58,1.41-.32.06c-1.12.2-3.29.61-6.25,1.19-2.56.5-5.71,1.12-9.27,1.88l-.08,0-2.26.48-2,.43-.69.15-1,.22-.51.11-.12,0-5.54,1.25-1.47.34H458c-3,.64-5.53,1.12-9.06,2.12l-.2.05-.33.09-.18.06-.14,0s0,0,0,0l-.12,0-.09,0,0,0-1.6.5-.36.11-1.21.36-.53.17-.42.13-3.5,1.09s-1,.33-3.05,1.18l0,0a8.45,8.45,0,0,0-2.34,1.18l-.18.13-.51.39a9.34,9.34,0,0,0-.81.8l-.21.21a.3.3,0,0,0-.08.08l-.21.22c-.19.19-.35.36-.49.52l0,.05-.19.21-.35.4-1,1.17c-.18.2-.33.37-.45.52l-.26.29c-.12.13-.21.25-.3.34l-.45.51a.65.65,0,0,0-.11.12l-.06.07-.17.19-.31.36-.41.49a2.9,2.9,0,0,0-.19.22c-.18.23-.38.48-.65.8l-.25.3-.07.08-.27.33-.47.55-.42.5a2.69,2.69,0,0,0-.27.32c-.24.29-.3.35-.47.57,0,0-.24.29-.61.77l-.6.81,0,0c-.13.18-.28.38-.42.59s-.33.46-.49.7c-.48.71-.94,1.45-1.37,2.18q-.18.29-.33.57c-.34.58-.66,1.15-1,1.72-.2.37-.4.74-.57,1.1s-.51,1-.75,1.48c-.06.13-.13.26-.18.39-.29.6-.56,1.18-.81,1.73-1.19,2.66-1.87,4.55-1.87,4.55-.34.93-.63,1.81-.87,2.6-.16.51-.31,1-.43,1.42-.22.71-.4,1.37-.55,2l-.09.34c-.07.25-.13.49-.19.71s-.18.73-.28,1.16-.14.6-.21.92c-.14.6-.29,1.26-.43,2q-.1.44-.18.9c-.23,1.16-.46,2.45-.66,3.82-.07.44-.16,1.06-.26,1.95s-.16,1.49-.22,2.07-.08,1-.11,1.51c0,.34-.05.69-.07,1,0,.2,0,.42,0,.65l-.06,1c0,.63-.06,1.32-.09,2.05l0,.65c0,.2,0,.4,0,.61-.06,1.28-.1,2.69-.13,4.25l0,1.06c-.34,10.79-.09,18.86-.09,18.86,0,1,.29,8.6,1.24,16.47,0,.39.09.78.14,1.17.08.65.16,1.31.25,2l0,.24c.34,2.64.76,5.6,1.36,8.83.1.56.2,1.12.32,1.7s.18.91.28,1.38A104.28,104.28,0,0,0,422,386.42l.3.66c3.35,7.43,7.77,17,17.27,26.21q1.62,1.57,3.24,3A37.35,37.35,0,0,0,446,419c.82.6,1.7,1.2,2.46,1.72,1.28.88,2.28,1.52,2.28,1.52l1,.65c4,2.56,7.34,4.27,9.54,5.4l.46.24.31.16,1.33.69a133.59,133.59,0,0,0,20.24,8.56l.25.08c9.12,3.07,19,4.65,37.46,7.42l1.62.25c7.51,1.16,14.1,2.15,21.25,3l.93.12.86.1c2.8.34,5.46.61,8.24.85l.8.07.91.07.6,0,1.58.11,1.27.09.67,0,1.41.09,1.19.06,1.45.07.68,0c4.7.22,8.55.31,11,.34l1.32,0,11.34.19c7,.11,13.69.14,18.84.14h.49c10.54,0,13.33,0,17.37-.12l1.45,0,2.12,0,8.49-.09H639s.67,0,2,0h.12c1.65,0,2.53-.07,3.69-.11l3.17-.15h0c1.2-.05,2.3-.11,3.32-.17l2.12-.14,1-.08,1.39-.13.62-.07,1.2-.16c1.09-.16,2.13-.35,3.18-.59,1.58-.34,2.92-.71,4-1l.14,0c2.61-.69,5.52-1.49,6.64-1.79l4.74-1.32q.28,2.78.51,5.66,0,.4.06.81c.06.73.11,1.47.16,2.22,0,.1,0,.2,0,.3q.09,1.47.18,3l0,.62C677.35,459,677.4,460.3,677.45,461.57Z"
		transform="translate(-162.62 -109.79)" fill="var(--color-1)" />
	<path
		d="M676.57,498.42c.57-7.79.84-13.33,1-17.22a359.73,359.73,0,0,1-2.64,35.93C675.5,511.36,676.07,505.27,676.57,498.42Z"
		transform="translate(-162.62 -109.79)" fill="var(--color-2)" />
	<path d="M677.05,453.76c0-.75-.1-1.49-.16-2.22C677,452.26,677,453,677.05,453.76Z"
		transform="translate(-162.62 -109.79)" fill="var(--color-1)" />
	<path d="M676.83,450.73q-.23-2.88-.51-5.66h0Q676.61,447.66,676.83,450.73Z" transform="translate(-162.62 -109.79)"
		fill="var(--color-1)" />
	<path
		d="M674.88,517.3c-.79,7.49-1.66,14.46-2.55,21.88-2.36,19.68-4.49,36.5-6.17,49.5l-.3.45C668,572.73,671.63,544.35,674.88,517.3Z"
		transform="translate(-162.62 -109.79)" fill="var(--color-1)" />
	<path
		d="M665.85,589.14c-.55,4.26-1,7.72-1.31,10.13-1.32,10.22-2.77,21.62-5.44,44.44-5.75,49-9.67,79.7-10.43,82.22-.3,1.18-2.12,12.14-3.78,24.44-3.78,26.66-5.44,36.29-8.46,45.33l-2.27,6.81-11.48,1a371.7,371.7,0,0,1-51.53,0l-13.75-1-.91-6.07c-.45-3.41-3.17-22.37-6-42.37s-5.29-37-5.29-37.92,4.23-2.52,9.52-3.55c21.15-4.3,46.39-15,46.39-19.56,0-.74-28.56-1.18-69.82-.89-78.88.45-77.21.3-81.9,11.41-4.08,10.22-7,38.37-7,69.62l-.15,29.63-4.84,1c-6.5,1.63-75.55.74-92.48-1-21-2.22-20.4-1.93-20.4-10.37,0-10.67-4.23-53.92-7.56-78.36-4.68-33.93-14.65-149.18-17.37-201.47-1.82-35.4,3.32-101.91,11.48-150.35,3.93-22.82,13.3-57.92,22.52-84.44,7.55-21.48,19.49-49,24.18-55.55,1.36-2.07,5.13-8.44,8.16-14.07,7.25-13.63,24.33-34.52,35.21-43.11,15.71-12.3,33.84-19,58.33-21.18,8.23-.75,14.83-1.3,19.25-1.35,1.38,0,2.7,0,3.94,0a167.69,167.69,0,0,0-26.22,2.18,120,120,0,0,0-14.83,2.93,102.31,102.31,0,0,0-20.14,7.69,91.39,91.39,0,0,0-17.67,12.06c-1.47,1.27-5.77,5.09-12.92,13.8A220.65,220.65,0,0,0,373,206.49s-19.36,48.6-24.21,95.32-12.51,89.62-10.47,146.55-2,25.79,5.62,97.79S385.3,630.4,385.3,630.4s14.61,11.24,63.86,15.58,116.65,5.62,116.65,5.62,38.33,4,70-27A250.22,250.22,0,0,0,665.85,589.14Z"
		transform="translate(-162.62 -109.79)" fill="var(--color-2)" />
	<path d="M664.8,448.22c-1,.31-2.39.68-4,1l.45-.11C662.14,448.92,663.42,448.59,664.8,448.22Z"
		transform="translate(-162.62 -109.79)" fill="var(--color-1)" />
	<path d="M656.45,450l1.2-.16Z" transform="translate(-162.62 -109.79)" fill="var(--color-1)" />
	<path d="M655.83,450.06l-1.39.13Z" transform="translate(-162.62 -109.79)" fill="var(--color-1)" />
	<path d="M653.46,450.27l1-.08Z" transform="translate(-162.62 -109.79)" fill="var(--color-1)" />
	<path d="M637.52,450.89l3.5-.05c-1.36,0-2,0-2,0Z" transform="translate(-162.62 -109.79)" fill="var(--color-1)" />
	<path d="M638,229a.57.57,0,0,1,0,.31c.12-.42-.81-2.14-1.44-3.25A14.17,14.17,0,0,1,638,229Z"
		transform="translate(-162.62 -109.79)" fill="var(--color-1)" />
	<path d="M637.37,229.3c.32.11.49.16.56.1-.09.08-.28,0-.47-.06Z" transform="translate(-162.62 -109.79)"
		fill="var(--color-1)" />
	<path d="M632.9,220.23c.18.27.36.54.52.8Z" transform="translate(-162.62 -109.79)" fill="var(--color-1)" />
	<path d="M632.7,219.92l.2.31C632.82,220.12,632.76,220,632.7,219.92Z" transform="translate(-162.62 -109.79)"
		fill="var(--color-1)" />
	<path d="M633.29,227.65l-1.1-.43Z" transform="translate(-162.62 -109.79)" fill="var(--color-1)" />
	<path d="M630.89,217.19l-.84-1.25C630.34,216.36,630.62,216.78,630.89,217.19Z" transform="translate(-162.62 -109.79)"
		fill="var(--color-1)" />
	<path d="M629.7,215.42l-.91-1.33Z" transform="translate(-162.62 -109.79)" fill="var(--color-1)" />
	<path d="M627.12,211.69l.32.45Z" transform="translate(-162.62 -109.79)" fill="var(--color-1)" />
	<path d="M626.38,210.63c.14.2.28.39.41.59Z" transform="translate(-162.62 -109.79)" fill="var(--color-1)" />
	<path d="M626.18,225.41l.3.07Z" transform="translate(-162.62 -109.79)" fill="var(--color-1)" />
	<path d="M625.73,225.31l-.25-.05Z" transform="translate(-162.62 -109.79)" fill="var(--color-1)" />
	<path d="M624.88,208.52l.21.3Z" transform="translate(-162.62 -109.79)" fill="var(--color-1)" />
	<path d="M624.46,207.94l.29.4Z" transform="translate(-162.62 -109.79)" fill="var(--color-1)" />
	<path d="M620.57,202.66l.43.57Z" transform="translate(-162.62 -109.79)" fill="var(--color-1)" />
	<path d="M616.68,451.11l8.56-.09c-4,.08-6.83.14-17.37.12C612.1,451.14,615.26,451.12,616.68,451.11Z"
		transform="translate(-162.62 -109.79)" fill="var(--color-1)" />
	<path d="M611,223.92c3.39,0,5.38.06,7.63.28C617.12,224.08,614.79,224,611,223.92Z"
		transform="translate(-162.62 -109.79)" fill="var(--color-1)" />
	<path d="M612.87,193.12c-.59-.67-1.24-1.37-2-2.13l-.76-.79h0C611,191,611.91,192,612.87,193.12Z"
		transform="translate(-162.62 -109.79)" fill="var(--color-1)" />
	<path d="M611,223.92h0Z" transform="translate(-162.62 -109.79)" fill="var(--color-1)" />
	<path d="M610.14,190.2l-.72-.72Z" transform="translate(-162.62 -109.79)" fill="var(--color-1)" />
	<path d="M606,186.28l-.63-.56Z" transform="translate(-162.62 -109.79)" fill="var(--color-1)" />
	<path
		d="M604.66,185.08l.35.32a150.71,150.71,0,0,0-12.86-9.79c2.19,1.43,4.38,2.95,6.37,4.46,1,.74,1.93,1.49,1.93,1.49C601.38,182.3,602.89,183.53,604.66,185.08Z"
		transform="translate(-162.62 -109.79)" fill="var(--color-1)" />
	<path d="M599.24,224c2.26-.11,3.94-.06,4.44,0l-3.23.05-2.93.07-2.26.07Z" transform="translate(-162.62 -109.79)"
		fill="var(--color-1)" />
	<path
		d="M586,224.61c1.57-.12,2.86-.19,5.07-.29-1.39.09-3.45.23-6,.38l-2.41.14C584.17,224.75,585.14,224.67,586,224.61Z"
		transform="translate(-162.62 -109.79)" fill="var(--color-1)" />
	<path d="M582.2,224.87h.21l-.49,0Z" transform="translate(-162.62 -109.79)" fill="var(--color-1)" />
	<path d="M579.44,225l-2.91.15.19,0C578.06,225,579,225,579.44,225Z" transform="translate(-162.62 -109.79)"
		fill="var(--color-1)" />
	<path d="M578.1,167.2s1.13.61,2.94,1.64c-2.63-1.46-5.65-3-9-4.6C574,165.14,576,166.12,578.1,167.2Z"
		transform="translate(-162.62 -109.79)" fill="var(--color-1)" />
	<path d="M575.88,450.79c-2.48,0-6.33-.12-11-.34C568.17,450.6,571.69,450.7,575.88,450.79Z"
		transform="translate(-162.62 -109.79)" fill="var(--color-1)" />
	<path
		d="M565.43,226.62c.56-.05,1-.11,1.78-.22l-3.28.55-.49.08a.45.45,0,0,1-.15-.32C563.76,226.71,564.51,226.7,565.43,226.62Z"
		transform="translate(-162.62 -109.79)" fill="var(--color-1)" />
	<path d="M566.07,161.59l-.42-.18Z" transform="translate(-162.62 -109.79)" fill="var(--color-1)" />
	<path d="M562.93,160.3l-.85-.34Z" transform="translate(-162.62 -109.79)" fill="var(--color-1)" />
	<path d="M562.93,227.11l-2.39.39Z" transform="translate(-162.62 -109.79)" fill="var(--color-1)" />
	<path d="M561.21,159.62l-.94-.36Z" transform="translate(-162.62 -109.79)" fill="var(--color-1)" />
	<path d="M546.05,448.92l-.86-.1-.93-.12Z" transform="translate(-162.62 -109.79)" fill="var(--color-1)" />
	<path d="M524.11,445.83c8.54,1.27,14.69,2.18,20.15,2.87-7.15-.88-13.74-1.87-21.25-3Z"
		transform="translate(-162.62 -109.79)" fill="var(--color-1)" />
	<path d="M539.61,152.68l2.27.64-3.31-.92-.12,0Z" transform="translate(-162.62 -109.79)" fill="var(--color-1)" />
	<path d="M539.61,230.86c-1.88.35-3.71.67-6.74,1.16-4.79.77-6.1.9-10,1.5l15.26-2.43Z"
		transform="translate(-162.62 -109.79)" fill="var(--color-1)" />
	<path d="M522.88,233.52l-.87.14Z" transform="translate(-162.62 -109.79)" fill="var(--color-1)" />
	<path d="M521.73,148.1l-1-.24c-4.26-1-7.91-1.8-11.38-2.5C513.36,146.14,517.46,147.07,521.73,148.1Z"
		transform="translate(-162.62 -109.79)" fill="var(--color-1)" />
	<path d="M520.12,234l1.8-.29-1.46.24Z" transform="translate(-162.62 -109.79)" fill="var(--color-1)" />
	<path d="M520.12,234l-.82.13Z" transform="translate(-162.62 -109.79)" fill="var(--color-1)" />
	<path d="M519.2,234.11l-1.23.2Z" transform="translate(-162.62 -109.79)" fill="var(--color-1)" />
	<path d="M517.12,234.46l-.82.14Z" transform="translate(-162.62 -109.79)" fill="var(--color-1)" />
	<path d="M507.94,145.09l1.37.27Z" transform="translate(-162.62 -109.79)" fill="var(--color-1)" />
	<path d="M491.31,142.9l.46,0Z" transform="translate(-162.62 -109.79)" fill="var(--color-1)" />
	<path d="M490,142.82a6,6,0,0,1,.61,0Z" transform="translate(-162.62 -109.79)" fill="var(--color-1)" />
	<path d="M485.75,142.63c1.44,0,2.85.1,4.25.19C488.79,142.75,487.36,142.68,485.75,142.63Z"
		transform="translate(-162.62 -109.79)" fill="var(--color-1)" />
	<path
		d="M487.19,239.83l-4.26.82c-4.38.85-7.28,1.41-11.26,2.25,3.56-.76,6.71-1.38,9.27-1.88C483.9,240.44,486.07,240,487.19,239.83Z"
		transform="translate(-162.62 -109.79)" fill="var(--color-1)" />
	<path d="M483.68,437.92a133.59,133.59,0,0,1-20.24-8.56l-1.33-.69A164.67,164.67,0,0,0,483.68,437.92Z"
		transform="translate(-162.62 -109.79)" fill="var(--color-1)" />
	<path d="M469.33,243.4l2.26-.48Z" transform="translate(-162.62 -109.79)" fill="var(--color-1)" />
	<path d="M467.37,243.83l-.69.15Z" transform="translate(-162.62 -109.79)" fill="var(--color-1)" />
	<path d="M448.93,248.06c3.53-1,6-1.48,9.06-2.12C452.74,247.13,450.17,247.75,448.93,248.06Z"
		transform="translate(-162.62 -109.79)" fill="var(--color-1)" />
	<path d="M447.82,248.39s0,0,.07,0-.37.09-1.67.48Z" transform="translate(-162.62 -109.79)" fill="var(--color-1)" />
	<path d="M445.86,249l.36-.11Z" transform="translate(-162.62 -109.79)" fill="var(--color-1)" />
	<path
		d="M442.76,416.25q-1.62-1.38-3.24-3c-9.5-9.25-13.92-18.78-17.27-26.21.19.41.39.82.59,1.24C429.52,402.23,437.55,411.48,442.76,416.25Z"
		transform="translate(-162.62 -109.79)" fill="var(--color-1)" />
	<path d="M437.1,252l-.21.09a11.57,11.57,0,0,0-2.13,1.09A8.45,8.45,0,0,1,437.1,252Z"
		transform="translate(-162.62 -109.79)" fill="var(--color-1)" />
	<path d="M433.05,254.66l-.08.08A.3.3,0,0,1,433.05,254.66Z" transform="translate(-162.62 -109.79)" fill="var(--color-1)" />
	<path d="M432.76,255c-.17.18-.32.35-.49.52C432.41,255.32,432.57,255.15,432.76,255Z"
		transform="translate(-162.62 -109.79)" fill="var(--color-1)" />
	<path d="M432.23,255.53l-.19.21Z" transform="translate(-162.62 -109.79)" fill="var(--color-1)" />
	<path d="M427.94,260.42a2.9,2.9,0,0,1,.19-.22Z" transform="translate(-162.62 -109.79)" fill="var(--color-1)" />
	<path d="M425.54,263.3a2.69,2.69,0,0,1,.27-.32Z" transform="translate(-162.62 -109.79)" fill="var(--color-1)" />
	<path d="M424.46,264.64c-.16.23-.37.5-.6.81Z" transform="translate(-162.62 -109.79)" fill="var(--color-1)" />
	<path d="M414.79,284.51c-.2.67-.35,1.23-.47,1.68,0,.09-.05.18-.08.28C414.39,285.88,414.57,285.22,414.79,284.51Z"
		transform="translate(-162.62 -109.79)" fill="var(--color-1)" />
	<path d="M414.07,360.71c.1.55.21,1.12.32,1.7C414.27,361.83,414.17,361.27,414.07,360.71Z"
		transform="translate(-162.62 -109.79)" fill="var(--color-1)" />
	<path d="M414,287.52c.06-.22.12-.46.19-.71C414.09,287,414,287.26,414,287.52Z" transform="translate(-162.62 -109.79)"
		fill="var(--color-1)" />
	<path d="M412.84,352.81c.33,2.28.7,4.94,1.23,7.9-.6-3.23-1-6.19-1.36-8.83C412.75,352.19,412.8,352.5,412.84,352.81Z"
		transform="translate(-162.62 -109.79)" fill="var(--color-1)" />
	<path d="M411.72,300.32c.06-.58.12-1.28.22-2.07-.1.9-.21,2.06-.33,3.58C411.64,301.32,411.68,300.82,411.72,300.32Z"
		transform="translate(-162.62 -109.79)" fill="var(--color-1)" />
	<path
		d="M411.2,334.43c0,.48.31,7.07,1.09,14.07-1-7.87-1.2-15.44-1.24-16.47,0,0-.25-8.07.09-18.86-.05,2.55-.09,5.47-.09,8.81C411,327.75,411,330.63,411.2,334.43Z"
		transform="translate(-162.62 -109.79)" fill="var(--color-1)" />
	<path d="M411.54,302.87c0-.35,0-.7.07-1C411.59,302.16,411.57,302.5,411.54,302.87Z"
		transform="translate(-162.62 -109.79)" fill="var(--color-1)" />
	<path d="M411.5,303.52c0,.33,0,.67-.06,1Z" transform="translate(-162.62 -109.79)" fill="var(--color-1)" />
	<path
		d="M673,317a12.45,12.45,0,0,1-2.16,8.36c-2.63,4-6.7,5.67-8.91,6.48-17.08,6.29-39.88,5.79-44.53,5.67-7.69-.22-11.54-.32-15.65-.81-19.4-2.32-32.84-8.87-44-14.31a89,89,0,0,1-11.34-7c-6-4.25-7.46-6.28-8.36-8.37-.41-1-2.18-5.05-.54-9.18.62-1.57,1.81-3.29,7.29-6.74,4.22-2.66,7-4.44,12.14-6.21,8.61-3,15.86-3.24,25.64-3.51a169.08,169.08,0,0,1,25.91,1.35c7.53.9,12.4,1.51,18.89,3.51,3.38,1,7.65,2.94,16.19,6.75,10,4.44,13.49,6.42,17,8.9a43.23,43.23,0,0,1,8.37,7.83C672.45,314,672.85,316.23,673,317Z"
		transform="translate(-162.62 -109.79)" fill="#e9efed" />
</svg>