<?xml version="1.0" encoding="iso-8859-1"?>
<!-- Generator: Adobe Illustrator 16.0.0, SVG Export Plug-In . SVG Version: 6.00 Build 0)  -->
<!DOCTYPE svg PUBLIC "-//W3C//DTD SVG 1.1//EN" "http://www.w3.org/Graphics/SVG/1.1/DTD/svg11.dtd">
<svg version="1.1" id="controller" xmlns="http://www.w3.org/2000/svg" xmlns:xlink="http://www.w3.org/1999/xlink"
	viewBox="0 0 420.057 420.057" style="enable-background:new 0 0 420.057 420.057;" xml:space="preserve">
	<g>
		<path d="M12.81,283.1c6.103,2.333,12.577,3.711,19.204,3.735c-4.53,4.761-7.999,10.343-10.525,16.322
		c8.698,17.584,19.748,33.786,32.805,48.165c6.516-0.112,13.026-1.246,19.161-3.687c-2.418,6.104-3.552,12.551-3.679,19.027
		c15.236,13.648,32.474,25.103,51.223,33.87c5.919-2.652,11.423-6.239,16.092-10.876c0.172,6.616,1.681,13.032,4.14,19.063
		c18.502,6.412,38.159,10.343,58.601,11.325c4.524-4.685,8.315-10.091,10.936-16.146c2.607,6.027,6.368,11.401,10.866,16.07
		c21.015-1.143,41.2-5.374,60.136-12.243c2.316-6.071,3.687-12.519,3.711-19.115c4.801,4.564,10.427,8.043,16.446,10.588
		c17.641-8.592,33.891-19.58,48.357-32.536c-0.128-6.469-1.262-12.924-3.687-19.027c6.147,2.44,12.651,3.574,19.167,3.687
		c14.375-15.829,26.309-33.891,35.357-53.563c-2.66-5.951-6.255-11.477-10.912-16.17c6.572-0.16,12.965-1.663,18.976-4.083
		c5.995-17.705,9.738-36.424,10.796-55.876c-4.677-4.492-10.043-8.264-16.07-10.868c6.056-2.616,11.462-6.412,16.146-10.932
		c-1.05-22.015-5.49-43.14-12.804-62.869c-6.104-2.338-12.571-3.711-19.195-3.739c4.521-4.763,7.994-10.345,10.515-16.316
		c-4.688-9.492-10.086-18.568-16.113-27.19c-48.727,25.109-156.594,114.032-172.416,120.309
		c6.274-15.793,94.279-124.076,119.257-173.157c-9.538-6.576-19.641-12.385-30.236-17.348c-5.919,2.663-11.421,6.239-16.09,10.882
		c-0.177-6.612-1.679-13.032-4.132-19.069c-18.51-6.406-38.167-10.339-58.604-11.321c-4.526,4.689-8.317,10.091-10.938,16.15
		c-2.606-6.029-6.368-11.407-10.868-16.072c-21.013,1.146-41.206,5.37-60.139,12.239c-2.314,6.075-3.683,12.523-3.705,19.115
		c-4.805-4.561-10.428-8.045-16.449-10.571C100.502,29.458,84.242,40.448,69.783,53.4c0.126,6.47,1.265,12.93,3.679,19.033
		c-6.137-2.442-12.646-3.573-19.162-3.693c-14.375,15.835-26.314,33.889-35.365,53.565c2.661,5.949,6.255,11.478,10.914,16.168
		c-6.574,0.17-12.964,1.669-18.976,4.094c-5.991,17.695-9.736,36.416-10.794,55.87c4.669,4.492,10.039,8.261,16.068,10.866
		C10.089,211.92,4.687,215.715,0,220.235C1.06,242.24,5.496,263.367,12.81,283.1z" />
	</g>
</svg>