<svg id="chip" data-name="Слой 1" xmlns="http://www.w3.org/2000/svg" viewBox="0 0 91.93 128.71"><title>motherboardsChip</title><rect x="9.17" y="18.36" width="73.55" height="91.93" fill="#ffce54"/><path d="M86.77,120.16H13.23A9.2,9.2,0,0,1,4,111V19a9.2,9.2,0,0,1,9.2-9.19H86.77A9.2,9.2,0,0,1,96,19V111A9.2,9.2,0,0,1,86.77,120.16ZM22.42,101.77H77.58V28.23H22.42Z" transform="translate(-4.03 -0.65)" fill="#3a3847"/><path d="M31.61,28.23A9.2,9.2,0,0,1,22.42,19V9.84a9.2,9.2,0,0,1,18.39,0V19A9.2,9.2,0,0,1,31.61,28.23Z" transform="translate(-4.03 -0.65)" fill="#3a3847"/><path d="M31.61,129.35a9.19,9.19,0,0,1-9.19-9.19V111a9.2,9.2,0,1,1,18.39,0v9.19A9.19,9.19,0,0,1,31.61,129.35Z" transform="translate(-4.03 -0.65)" fill="#3a3847"/><path d="M68.39,28.23a9.2,9.2,0,0,1-9.2-9.2V9.84a9.2,9.2,0,0,1,18.39,0V19A9.2,9.2,0,0,1,68.39,28.23Z" transform="translate(-4.03 -0.65)" fill="#3a3847"/><path d="M68.39,129.35a9.19,9.19,0,0,1-9.2-9.19V111a9.2,9.2,0,1,1,18.39,0v9.19A9.19,9.19,0,0,1,68.39,129.35Z" transform="translate(-4.03 -0.65)" fill="#3a3847"/></svg>