<svg id="processor" data-name="Слой 1" xmlns="http://www.w3.org/2000/svg" viewBox="0 0 244.72 299.11"><title>processor</title><path d="M272.44,239.63a27.29,27.29,0,0,1-27.2,27.19H218.05L82.1,294V266.82H68.5a27.28,27.28,0,0,1-27.19-27.19V62.91A27.27,27.27,0,0,1,68.5,35.72H95.69l136-27.2v27.2h13.59a27.28,27.28,0,0,1,27.2,27.19Z" transform="translate(-28.11 -0.49)" fill="#aab2bd"/><g opacity="0.5"><path d="M54.9,239.63V62.91A27.28,27.28,0,0,1,82.1,35.72H68.5A27.27,27.27,0,0,0,41.31,62.91V239.63A27.28,27.28,0,0,0,68.5,266.82H82.1A27.29,27.29,0,0,1,54.9,239.63Z" transform="translate(-28.11 -0.49)" fill="#fff"/></g><g opacity="0.2"><path d="M258.84,62.91V239.63a27.28,27.28,0,0,1-27.19,27.19h13.59a27.29,27.29,0,0,0,27.2-27.19V62.91a27.28,27.28,0,0,0-27.2-27.19H231.65A27.28,27.28,0,0,1,258.84,62.91Z" transform="translate(-28.11 -0.49)"/></g><rect x="81.18" y="76.02" width="95.17" height="149.55" fill="#a0d468"/><rect x="53.99" y="76.02" width="27.19" height="149.55" fill="#ccd1d9"/><rect x="176.34" y="76.02" width="27.19" height="149.55" fill="#ccd1d9"/><g opacity="0.2"><rect x="81.18" y="76.02" width="13.59" height="149.55"/></g><g opacity="0.7"><rect x="53.99" y="76.02" width="13.59" height="149.55" fill="#fff"/></g><g opacity="0.2"><rect x="189.94" y="76.02" width="13.59" height="149.55"/></g><g opacity="0.2"><rect x="162.74" y="76.02" width="13.59" height="149.55"/></g><path d="M245.64,69.71a6.86,6.86,0,0,1-6.85-6.8,6.74,6.74,0,0,1,6.72-6.8h.13a6.8,6.8,0,1,1,0,13.6Z" transform="translate(-28.11 -0.49)" fill="#3a3847"/><path d="M68.9,69.71a6.85,6.85,0,0,1-6.85-6.8,6.73,6.73,0,0,1,6.71-6.8h.14a6.8,6.8,0,0,1,0,13.6Z" transform="translate(-28.11 -0.49)" fill="#3a3847"/><path d="M245.64,246.45a6.85,6.85,0,0,1-6.85-6.8,6.74,6.74,0,0,1,6.72-6.8h.13a6.8,6.8,0,0,1,0,13.6Z" transform="translate(-28.11 -0.49)" fill="#3a3847"/><path d="M68.9,246.45a6.84,6.84,0,0,1-6.85-6.8,6.73,6.73,0,0,1,6.71-6.8h.14a6.8,6.8,0,0,1,0,13.6Z" transform="translate(-28.11 -0.49)" fill="#3a3847"/><path id="SVGCleanerId_0" data-name="SVGCleanerId 0" d="M130.08,103.69a6.85,6.85,0,0,1-6.85-6.79A6.73,6.73,0,0,1,130,90.1h.13a6.8,6.8,0,1,1,0,13.59Z" transform="translate(-28.11 -0.49)" fill="#3a3847"/><path d="M157.27,103.69a6.85,6.85,0,0,1-6.85-6.79,6.73,6.73,0,0,1,6.72-6.8h.13a6.8,6.8,0,1,1,0,13.59Z" transform="translate(-28.11 -0.49)" fill="#3a3847"/><path d="M184.46,103.69a6.85,6.85,0,0,1-6.85-6.79,6.74,6.74,0,0,1,6.72-6.8h.13a6.8,6.8,0,1,1,0,13.59Z" transform="translate(-28.11 -0.49)" fill="#3a3847"/><path id="SVGCleanerId_0-2" data-name="SVGCleanerId 0" d="M130.08,103.69a6.85,6.85,0,0,1-6.85-6.79A6.73,6.73,0,0,1,130,90.1h.13a6.8,6.8,0,1,1,0,13.59Z" transform="translate(-28.11 -0.49)" fill="#3a3847"/><path id="SVGCleanerId_1" data-name="SVGCleanerId 1" d="M130.08,130.89a6.85,6.85,0,0,1-6.85-6.8,6.73,6.73,0,0,1,6.72-6.8h.13a6.8,6.8,0,0,1,0,13.6Z" transform="translate(-28.11 -0.49)" fill="#3a3847"/><path d="M157.27,130.89a6.85,6.85,0,0,1-6.85-6.8,6.73,6.73,0,0,1,6.72-6.8h.13a6.8,6.8,0,0,1,0,13.6Z" transform="translate(-28.11 -0.49)" fill="#3a3847"/><path d="M184.46,130.89a6.85,6.85,0,0,1-6.85-6.8,6.74,6.74,0,0,1,6.72-6.8h.13a6.8,6.8,0,0,1,0,13.6Z" transform="translate(-28.11 -0.49)" fill="#3a3847"/><path id="SVGCleanerId_1-2" data-name="SVGCleanerId 1" d="M130.08,130.89a6.85,6.85,0,0,1-6.85-6.8,6.73,6.73,0,0,1,6.72-6.8h.13a6.8,6.8,0,0,1,0,13.6Z" transform="translate(-28.11 -0.49)" fill="#3a3847"/><path id="SVGCleanerId_2" data-name="SVGCleanerId 2" d="M130.08,158.08a6.85,6.85,0,0,1-6.85-6.8,6.73,6.73,0,0,1,6.72-6.8h.13a6.8,6.8,0,0,1,0,13.6Z" transform="translate(-28.11 -0.49)" fill="#3a3847"/><path d="M157.27,158.08a6.85,6.85,0,0,1-6.85-6.8,6.73,6.73,0,0,1,6.72-6.8h.13a6.8,6.8,0,0,1,0,13.6Z" transform="translate(-28.11 -0.49)" fill="#3a3847"/><path d="M184.46,158.08a6.85,6.85,0,0,1-6.85-6.8,6.74,6.74,0,0,1,6.72-6.8h.13a6.8,6.8,0,0,1,0,13.6Z" transform="translate(-28.11 -0.49)" fill="#3a3847"/><path id="SVGCleanerId_2-2" data-name="SVGCleanerId 2" d="M130.08,158.08a6.85,6.85,0,0,1-6.85-6.8,6.73,6.73,0,0,1,6.72-6.8h.13a6.8,6.8,0,0,1,0,13.6Z" transform="translate(-28.11 -0.49)" fill="#3a3847"/><path id="SVGCleanerId_3" data-name="SVGCleanerId 3" d="M130.08,185.27a6.85,6.85,0,0,1-6.85-6.8,6.73,6.73,0,0,1,6.72-6.8h.13a6.8,6.8,0,0,1,0,13.6Z" transform="translate(-28.11 -0.49)" fill="#3a3847"/><path d="M157.27,185.27a6.85,6.85,0,0,1-6.85-6.8,6.73,6.73,0,0,1,6.72-6.8h.13a6.8,6.8,0,0,1,0,13.6Z" transform="translate(-28.11 -0.49)" fill="#3a3847"/><path d="M184.46,185.27a6.85,6.85,0,0,1-6.85-6.8,6.74,6.74,0,0,1,6.72-6.8h.13a6.8,6.8,0,0,1,0,13.6Z" transform="translate(-28.11 -0.49)" fill="#3a3847"/><path id="SVGCleanerId_3-2" data-name="SVGCleanerId 3" d="M130.08,185.27a6.85,6.85,0,0,1-6.85-6.8,6.73,6.73,0,0,1,6.72-6.8h.13a6.8,6.8,0,0,1,0,13.6Z" transform="translate(-28.11 -0.49)" fill="#3a3847"/><path id="SVGCleanerId_4" data-name="SVGCleanerId 4" d="M130.08,212.46a6.85,6.85,0,0,1-6.85-6.8,6.73,6.73,0,0,1,6.72-6.8h.13a6.8,6.8,0,0,1,0,13.6Z" transform="translate(-28.11 -0.49)" fill="#3a3847"/><path d="M157.27,212.46a6.85,6.85,0,0,1-6.85-6.8,6.73,6.73,0,0,1,6.72-6.8h.13a6.8,6.8,0,1,1,0,13.6Z" transform="translate(-28.11 -0.49)" fill="#3a3847"/><path d="M184.46,212.46a6.85,6.85,0,0,1-6.85-6.8,6.74,6.74,0,0,1,6.72-6.8h.13a6.8,6.8,0,0,1,0,13.6Z" transform="translate(-28.11 -0.49)" fill="#3a3847"/><path id="SVGCleanerId_4-2" data-name="SVGCleanerId 4" d="M130.08,212.46a6.85,6.85,0,0,1-6.85-6.8,6.73,6.73,0,0,1,6.72-6.8h.13a6.8,6.8,0,0,1,0,13.6Z" transform="translate(-28.11 -0.49)" fill="#3a3847"/><path d="M75.7,231.62a6.79,6.79,0,0,1-6.8-6.8V75.27a6.8,6.8,0,0,1,13.6,0V224.82A6.79,6.79,0,0,1,75.7,231.62Z" transform="translate(-28.11 -0.49)" fill="#3a3847"/><path d="M225.25,231.62a6.79,6.79,0,0,1-6.8-6.8V75.27a6.8,6.8,0,0,1,13.6,0V224.82A6.79,6.79,0,0,1,225.25,231.62Z" transform="translate(-28.11 -0.49)" fill="#3a3847"/><path d="M102.89,272.4H62.1a34,34,0,0,1-34-34V61.67a34,34,0,0,1,34-34,6.8,6.8,0,1,1,0,13.6A20.41,20.41,0,0,0,41.71,61.67V238.41a20.42,20.42,0,0,0,20.39,20.4h40.79a6.8,6.8,0,1,1,0,13.59Z" transform="translate(-28.11 -0.49)" fill="#3a3847"/><path d="M238.85,272.4a6.8,6.8,0,1,1,0-13.59,20.42,20.42,0,0,0,20.39-20.4V61.67a20.41,20.41,0,0,0-20.39-20.39H198.06a6.8,6.8,0,0,1,0-13.6h40.79a34,34,0,0,1,34,34V238.41A34,34,0,0,1,238.85,272.4Z" transform="translate(-28.11 -0.49)" fill="#3a3847"/><path d="M89.29,41.28A6.8,6.8,0,0,1,88,27.81L223.92.62A6.8,6.8,0,0,1,226.58,14l-136,27.2A6.81,6.81,0,0,1,89.29,41.28Z" transform="translate(-28.11 -0.49)" fill="#3a3847"/><path d="M225.25,41.28a6.79,6.79,0,0,1-6.8-6.8V7.29a6.8,6.8,0,1,1,13.6,0V34.48A6.79,6.79,0,0,1,225.25,41.28Z" transform="translate(-28.11 -0.49)" fill="#3a3847"/><path d="M75.7,299.6a6.8,6.8,0,0,1-1.33-13.47l136-27.19A6.8,6.8,0,0,1,213,272.27L77,299.46A6.12,6.12,0,0,1,75.7,299.6Z" transform="translate(-28.11 -0.49)" fill="#3a3847"/><path d="M75.7,299.6a6.79,6.79,0,0,1-6.8-6.8V265.6a6.8,6.8,0,0,1,13.6,0v27.2A6.79,6.79,0,0,1,75.7,299.6Z" transform="translate(-28.11 -0.49)" fill="#3a3847"/><path d="M102.89,231.62a6.79,6.79,0,0,1-6.8-6.8V75.27a6.8,6.8,0,0,1,13.6,0V224.82A6.8,6.8,0,0,1,102.89,231.62Z" transform="translate(-28.11 -0.49)" fill="#3a3847"/><path d="M198.06,231.62a6.79,6.79,0,0,1-6.8-6.8V75.27a6.8,6.8,0,0,1,13.6,0V224.82A6.8,6.8,0,0,1,198.06,231.62Z" transform="translate(-28.11 -0.49)" fill="#3a3847"/><path d="M102.89,231.62H75.7a6.8,6.8,0,0,1,0-13.6h27.19a6.8,6.8,0,0,1,0,13.6Z" transform="translate(-28.11 -0.49)" fill="#3a3847"/><path d="M225.25,231.62H198.06a6.8,6.8,0,0,1,0-13.6h27.19a6.8,6.8,0,1,1,0,13.6Z" transform="translate(-28.11 -0.49)" fill="#3a3847"/><path d="M225.25,82.07H198.06a6.8,6.8,0,0,1,0-13.6h27.19a6.8,6.8,0,1,1,0,13.6Z" transform="translate(-28.11 -0.49)" fill="#3a3847"/><path d="M102.89,82.07H75.7a6.8,6.8,0,0,1,0-13.6h27.19a6.8,6.8,0,0,1,0,13.6Z" transform="translate(-28.11 -0.49)" fill="#3a3847"/><path d="M184.46,82.07h-68a6.8,6.8,0,0,1,0-13.6h68a6.8,6.8,0,0,1,0,13.6Z" transform="translate(-28.11 -0.49)" fill="#3a3847"/><path d="M184.46,231.62h-68a6.8,6.8,0,0,1,0-13.6h68a6.8,6.8,0,1,1,0,13.6Z" transform="translate(-28.11 -0.49)" fill="#3a3847"/></svg>