<?xml version="1.0" encoding="utf-8"?><svg xmlns="http://www.w3.org/2000/svg" xmlns:xlink="http://www.w3.org/1999/xlink"><symbol viewBox="0 0 116.22 97.28" id="Antennas" xmlns="http://www.w3.org/2000/svg"><path d="M58.11 97.28L6.29 13.78l8.82-4.88 43 67.56L101.1 8.9l8.83 4.88-51.82 83.5z"/><circle cx="104.88" cy="11.35" r="11.35"/><circle cx="11.35" cy="11.35" r="11.35"/></symbol><symbol viewBox="0 0 573.08 730.94" id="among" xmlns="http://www.w3.org/2000/svg"><path d="M121.38 304.42h-4.2l-13.59.28-14.2.66-10.36.8-7.52.85-7 1.13-6.55 1.58-5.83 1.83-5.68 2.14-6.42 2.8-4.77 2.34-3.54 1.88-5.65 3.31 2.31-17.95a208.92 208.92 0 017.06-27.8 101.62 101.62 0 019.94-22.48l1.75-2.29 1.12-1.09 1-.67 4.27-1.41 19.36-5.12 31-7.43 21.73-4.67 2-.34 1.58-.18h.36a1.53 1.53 0 01.39.13 1 1 0 01.38.36 1.52 1.52 0 01.26.58 6.24 6.24 0 01.12 1.52c0 .54-.17 1.71-.17 1.71l-1.23 9-1.59 11.63-1.52 11-.75 6.35-1.17 9-1 7.06-.77 5.41-.49 3.26z"/><path d="M28.59 310.81a146.72 146.72 0 0135.94-11.94c19.09-3.39 58.34-3.23 58.34-3.23l-2 11-2.62 20.23-1.4 20.53-.64 22.13-.16 24.12.13 33 .6 25.31 1.1 20.12 2.35 25.94 2.64 24 3.12 33 1.61 16.28.1 1.5v1l-.32 1.21-.54 1-.76.56-1.08.21-2.3.29-17.73 1.78-29 1.5a72 72 0 01-11.21-.73c-3.92-.8-9.15-2.68-11.79-5.09s-3.54-4.7-8.06-14.74c-3.32-7.37-13.85-53.12-13.29-55.11q-3.18-17.44-5.37-38c-.4.17-3.28-34.13-2.73-58.93.54-24.64 1.11-58 1.11-58l1.44-21.63zM296.95 165.97l2.05-1.16 3.99-1.39 4.76-1.39 6.62-1.51 11.01-1.95 12.59-1.79 15.17-1.82 20.78-2.11 23.74-2.25 20.24-.33 29.49.18 18.79.58 6.08.67 4.83 1.03 11.41 3.85 12.01 5.73 3.92 2.28 5.76 3.75 7.58 5.69 4.88 4.16 5.73 5.48 3.64 3.85 6.95 8.44 3.54 5.01 3.69 6 2.62 5.01 3 7.07 1.21 3.62 1.18 4.58.55 3.02.59 5.53.26 5.59-.15 1.33-.25 1.01-.26.65-.28.55-.42.65-.4.51-.42.48-.69.73-1.42 1.36-1.2 1.08-.77.64-.69.53-1.61 1.17-1.16.79-3.06 1.91-2.59 1.48-3.58 1.91-2.86 1.42-3.07 1.43-2.45 1.09-3.11 1.31-3.23 1.28-4.19 1.54-4.22 1.4-2.05.62-3.19.87-5.07 1.19-4.66.93-2.76.49-5.93.99-5.35.8-6.83.93-3.79.48-5.94.7-10.3 1.08-11.57 1.01-8.71.59-3.48.16-5.95.09-5.11-.03-10.52-.29-13.7-.74-15.15-1.27-6.16-.7-5.67-.79-4.72-.85-5.24-1.35-4.94-1.61-4.04-1.6-4.95-2.32-5.71-3.28-4.95-3.42-7.43-6.36-7.54-8.42-8.81-13.38-6.81-14.51-6.26-19.24-1.96-8.09-2.27-11.15-.97-6.09-.11-2.38.16-1.69.3-1.01.41-.8.39-.52.76-.71z"/><path d="M285.27 138.62h-.07.35l.18-.06h.33l.2-.05c1.24-.31 3.81-.93 9.06-2.12h.07c3.76-.79 4.5-1 7-1.59h.12l.51-.11 1-.22.69-.15 2-.43 2.26-.48h.08c4-.84 6.88-1.4 11.26-2.25l4.26-.82.32-.06c10.78-1.87 20.86-3.75 27-4.86l1.79-.31.82-.14.85-.15 1.23-.2h.1l.82-.13.34-.05 1.46-.24h.08l.87-.14c3.86-.6 5.17-.73 10-1.5 3-.49 4.86-.81 6.74-1.16 8.15-1.3 15-2.42 20.21-3.25l.71-.11 2.39-.39.51-.08.49-.08 3.28-.55 1.07-.17.68-.11 1.79-.29.34-.06h.28c1.12-.16 2.23-.29 3.16-.38l1.27-.12.73-.06 2.91-.15h1.06l1.42-.08h.81l2.41-.14c2.51-.15 4.57-.29 6-.38l1.72-.09 1.62-.07h.77l2.26-.07 2.93-.07 3.23-.05c1.76.05 2.27 0 5.1 0h2.24c3.78 0 6.11.16 7.63.28l1.32.13c.69.09 1.65.22 2.78.41l1.87.34h.3l.57.12.25.05.45.1.3.07.9.22.91.24.55.15.31.09.22.07h.1l.53.17a1.43 1.43 0 01.27.09l.53.18.66.23.7.26 1.1.43 2.9 1.19.35.14.53.21.18.06h.17c.19.07.38.14.47.06a.22.22 0 00.05-.08.57.57 0 000-.31 14.17 14.17 0 00-1.47-2.94c-.14-.26-.31-.53-.48-.82s-.36-.61-.61-1c-.12-.2-.25-.42-.41-.67l-.49-.78c-.36-.56-.73-1.15-1.13-1.76-.16-.26-.34-.53-.52-.8l-.2-.31c-.56-.87-1.17-1.78-1.81-2.73-.27-.41-.55-.83-.84-1.25l-.35-.52-.91-1.33-1.35-2-.32-.45c-.1-.15-.21-.31-.33-.47s-.27-.39-.41-.59c-.42-.6-.85-1.2-1.29-1.81l-.21-.3-.13-.18-.29-.4c-1.13-1.58-2.3-3.16-3.46-4.71l-.43-.57c-.76-1-1.53-2-2.28-3-.51-.66-1-1.3-1.56-2-1.34-1.66-2.63-3.22-3.86-4.59-1-1.1-1.87-2.08-2.72-2.92l-.72-.72-.29-.28c-1.15-1.14-2.1-2-2.75-2.58l-.37-.34-.63-.56-.37-.32-.35-.32c-1.77-1.55-3.28-2.78-4.21-3.52 0 0-1-.75-1.93-1.49-2-1.51-4.18-3-6.37-4.46-.25-.18-.51-.35-.77-.51-1.79-1.2-5.31-3.48-10.17-6.17l-.17-.09c-1.81-1-2.94-1.64-2.94-1.64-2.1-1.08-4.12-2.06-6.06-3-.61-.29-1.21-.57-1.8-.83l-.55-.25-.55-.24-.13-.06-.69-.3c-.77-.35-1.52-.67-2.25-1l-.42-.18c-.94-.4-1.85-.77-2.72-1.11l-.85-.34-.87-.34-.94-.36-.69-.26-1.62-.6a187.827 187.827 0 00-12.41-4.02c-1.25-.37-2.46-.71-3.63-1l-2.27-.64-1.16-.32-2.3-.62c-3.56-1-8.19-2.21-14-3.54l-.43-.1c-4.27-1-8.37-2-12.42-2.74l-1.37-.27h-.22a129.41 129.41 0 00-13.08-1.87l-1.05-.1h-.33l-1.49-.11h-1.16a6 6 0 00-.61 0c-1.4-.09-2.81-.16-4.25-.19h-7.02c-4.42.05-11 .6-19.25 1.35-24.49 2.22-42.62 8.88-58.33 21.18-10.88 8.59-28 29.48-35.21 43.11-3 5.63-6.8 12-8.16 14.07-4.69 6.52-16.63 34.07-24.18 55.55-9.22 26.52-18.59 61.62-22.52 84.44-8.16 48.44-13.3 115-11.48 150.35 2.72 52.29 12.69 167.54 17.37 201.47 3.33 24.44 7.56 67.69 7.56 78.36 0 8.44-.6 8.15 20.4 10.37 16.93 1.78 86 2.67 92.48 1l4.84-1 .15-29.63c0-31.25 2.87-59.4 7-69.62 4.69-11.11 3-11 81.9-11.41 41.26-.29 69.82.15 69.82.89 0 4.59-25.24 15.26-46.39 19.56-5.29 1-9.52 2.66-9.52 3.55s2.41 17.92 5.29 37.92 5.59 39 6 42.37l.91 6.07 13.75 1a371.7 371.7 0 0051.53 0l11.48-1 2.27-6.81c3-9 4.68-18.67 8.46-45.33 1.66-12.3 3.48-23.26 3.78-24.44.76-2.52 4.68-33.18 10.43-82.22 2.67-22.82 4.12-34.22 5.44-44.44.31-2.41.76-5.87 1.31-10.13l.3-.45c1.68-13 3.81-29.82 6.17-49.5.89-7.42 1.76-14.39 2.55-21.88a1.11 1.11 0 010-.17 359.73 359.73 0 002.64-35.93v-1.11c.06-1.79.07-3.17.08-4.24.07-6.68-.1-12.77-.37-18.14v-.62q-.07-1.5-.18-3v-.3c0-.76-.1-1.5-.16-2.22q0-.41-.06-.81-.23-3.08-.48-5.67l-10.88 3-.5.15h-.14c-1.38.37-2.66.7-3.52.91l-.45.11c-1.05.24-2.09.43-3.18.59l-1.2.16-.62.07-1.39.13-1 .08-2.12.14-2.74.14h-.58c-3.1.14-5.37.22-6.86.26h-.1l-3.5.05h-.22c-5.15 0-8.21.06-10.61.11h-1.45l-8.56.09h-9.3c-3 0-12.34-.12-29.83-.33h-1.67c-4.19-.09-7.71-.19-11-.34h-.68l-1-.05h-.42l-1.19-.06-1.41-.09h-.67l-1.27-.09-1.62-.62h-.6l-.91-.07-.8-.07c-2.78-.24-5.44-.51-8.24-.85l-1.79-.22c-5.46-.69-11.61-1.6-20.15-2.87l-1.1-.16-1.62-.25c-11-1.69-16.52-2.55-18.48-2.93a156.61 156.61 0 01-19-4.49l-.25-.08a164.67 164.67 0 01-21.57-9.25l-.31-.16-.46-.24c-3.12-1.64-6.32-3.37-9.54-5.4l-1-.65s-1-.64-2.28-1.52a74.18 74.18 0 01-5.74-4.45c-5.21-4.77-13.24-14-19.92-27.93-.2-.42-.4-.83-.59-1.24l-.3-.66a109.76 109.76 0 01-7.28-22.63c-.1-.47-.19-.93-.28-1.38s-.22-1.15-.32-1.7c-.53-3-.9-5.62-1.23-7.9 0-.31-.09-.62-.13-.93v-.24c-.09-.68-.17-1.34-.25-2-.05-.39-.09-.78-.14-1.17-.78-7-1.07-13.59-1.09-14.07-.17-3.8-.16-6.68-.15-12.45 0-3.34 0-6.26.09-8.81v-1.06c0-.68.08-1.71.11-3.25v-2.26c0-.73.06-1.42.09-2.05 0-.36 0-.7.06-1s0-.45 0-.65c0-.37 0-.71.07-1 .12-1.52.23-2.68.33-3.58s.19-1.51.26-1.95c.2-1.37.43-2.66.66-3.82q.08-.44.18-.9c.14-.72.29-1.38.43-2 .06-.3.14-.61.21-.92s.2-.82.28-1.16.13-.5.19-.71l.09-.34c0-.1.06-.19.08-.28.12-.45.27-1 .47-1.68.12-.43.27-.91.43-1.42a71.67 71.67 0 012.74-7.15c.25-.55.52-1.13.81-1.73l.18-.39c.24-.49.48-1 .75-1.48l.57-1.1c.3-.57.62-1.14 1-1.72l.33-.57c.43-.73.89-1.47 1.37-2.18.16-.24.33-.48.49-.7l.42-.59c.23-.31.44-.58.6-.81.37-.48.61-.77.61-.77.17-.22.23-.28.47-.57l.27-.32.42-.5.47-.55a3.3 3.3 0 00.27-.33l.07-.08.25-.3c.27-.32.47-.57.65-.8l.19-.22.41-.49c.17-.18.33-.37.48-.55l.06-.07a.6.6 0 00.11-.12l.45-.51c.11-.11.21-.23.3-.34l.26-.29c.53-.59 1-1.17 1.49-1.69l.35-.4.19-.21v-.05c.17-.17.32-.34.49-.52l.21-.22.08-.08.21-.21a14.77 14.77 0 011.32-1.19l.18-.13a11.57 11.57 0 012.13-1.09l.21-.09c4.23-1.48 5.93-2.06 6.55-2.27l.42-.13.53-.17 1.21-.36.36-.11c1.48-.55 1.85-.64 1.85-.64zm286.68 74.74c2.22 13.92 1 41.48-2.37 56.14-3 12.89-11.26 30.52-18.08 38.52-5.92 6.81-6.07 8-7.85 52-1.33 34.81-2.07 42.37-7.4 89.48-1.63 13.77-4.3 39.55-5.93 57-5.48 57.62-15.11 138.21-19.26 161.76-2.66 14.52-7.4 31-11.11 38.07-4 7.85-11.55 15.56-17.48 17.78-2.37.89-24.59 1.92-51.84 2.52-44.44.74-48 .59-52.89-1.93a22.67 22.67 0 01-7.7-7.26c-4.59-7.85-8.89-33.92-13.93-84.44l-2.66-25.47-17.78-.6c-9.92-.44-19-1.18-20.14-1.77-1.93-.75-2.23 5.33-2.23 50.51 0 48.59-.14 51.85-3 57.48-4 8-17.63 15-33.33 17-15.26 2.08-93.47-.59-107.1-3.55-14.37-3.26-25-8.45-29.92-14.82-4.45-5.92-4.3-4.89-11.56-75.69l-3.26-32.59-3.7.14c-2.07 0-12.89.89-24.15 1.93-32 2.81-49-1-63.84-14.67-13-12-19-26.66-26.07-63.69-5.93-31.7-7.41-53-7.41-110.36 0-91 5.48-132.88 21.33-163 12-22.82 24-28 85.92-36.74l23.7-3.26 1.93-8.15c3.4-13.77 16.73-54.81 22.81-70.06 24.14-60.74 59.55-106.36 94.8-122.36 12.6-5.78 28.3-10.37 40-11.85 31.41-4.15 62.66 0 107.25 14.07 37.18 11.85 70.81 35.55 88.88 62.81 7.56 11.4 18.22 32.59 22.81 45.33 3 8 4.3 9.77 11 14.07 10.51 6.81 31.85 28.59 37.92 38.81a100.28 100.28 0 0113.64 36.84zm-27.31 28.7c2.22-4.34 1.89-8.81 1-13.28-3.29-16.87-13.63-30.38-17.37-35A119.59 119.59 0 00515 179.99a111.45 111.45 0 00-20.43-15.58 96.68 96.68 0 00-25.25-10.2c-9-2.19-17.47-2.17-34-2-14.38.11-25.31.84-39.32 1.79-9.73.66-17 1.3-31.59 2.59-39.21 3.48-20.86 2.75-40 4.55a145.91 145.91 0 00-14.51 2.76c-7.16 1.6-9 2.36-10.35 4.05-2 2.45-2 5.73-.67 13.35a142.37 142.37 0 004.76 19.67c4.41 12.93 6.62 19.39 10 26.05 3.53 6.85 7.62 14.83 14.81 22.3 3.17 3.29 11.78 11.51 30.3 18 5.38 1.89 19.06 6.28 72.68 5.36 28.7-.49 40.85-2 49-3.32 19.25-3 30-6.9 36.77-9.7a136.62 136.62 0 0021.44-11.24 17 17 0 006-6.36zm-420.65 3.44c.59-3 .29-4.14-1.19-4-5.78.3-64.73 12.89-67.7 14.52-6.51 3.41-16.88 31-18.81 50.22-.59 4.59-1.63 13-2.37 18.81-2.22 17.78-3.26 90.07-1.63 117.77a596.16 596.16 0 0012.89 92.14c7.41 32.44 10.67 36.89 27.11 37.92 7.85.59 31.4-1.18 46.22-3.41 1.48-.14 2.07-1.77 1.92-4.59-1.48-16.88-3.85-45-6.66-75.4-2.52-28.59-3.26-46.36-3.26-91.1-.15-54.81 1.18-77.62 6.51-106.66.75-4.44 2.52-15.7 3.71-25s2.81-18.85 3.26-21.22z"/><path d="M514.66 347.92c.27 5.37.44 11.46.37 18.14 0 1.07 0 2.45-.08 4.24.15-7.71 0-14.11-.12-18.52-.05-1.27-.1-2.57-.17-3.86z"/><path d="M514.83 351.78c.15 4.41.27 10.81.12 18.52v1.11c-.13 3.89-.4 9.43-1 17.22-.5 6.85-1.07 12.94-1.67 18.71a1.11 1.11 0 000 .17c-3.25 27.05-6.9 55.43-9 71.83a250.22 250.22 0 01-30 35.48c-31.71 31-70 27-70 27s-67.5-1.29-116.74-5.61-63.86-15.6-63.86-15.6-33.7-12.25-41.36-84.25-3.58-40.85-5.62-97.79 5.62-99.83 10.47-146.55 24.21-95.32 24.21-95.32a220.65 220.65 0 0117.89-25.26c7.15-8.71 11.45-12.53 12.92-13.8a91.39 91.39 0 0117.67-12.06A102.31 102.31 0 01279 37.89a120 120 0 0114.83-2.93 167.69 167.69 0 0126.22-2.18h3.08c1.61.05 3 .12 4.25.19h1.77l1.49.11h.33l1.05.1c4.43.42 8.74 1.06 13.08 1.87h.22l1.37.27c3.47.7 7.12 1.53 11.38 2.5l1 .24.43.1c3.56.87 7.24 1.81 11.11 2.79l2.88.75 2.3.62h.12l3.31.92c1.17.33 2.38.67 3.63 1 3 .88 6.3 1.89 9.82 3.1l2.59.92 1.62.6.69.26.94.36.87.34.85.34c.87.34 1.78.71 2.72 1.11l.42.18c.73.3 1.48.62 2.25 1l.69.3.13.06.55.24.55.25c.59.26 1.19.54 1.8.83 3.35 1.57 6.37 3.14 9 4.6l.17.09c2.53 1.44 6.31 3.66 10.17 6.17.26.16.52.33.77.51a150.71 150.71 0 0112.93 10.11l.37.32.63.56.37.34c.77.7 1.74 1.6 2.75 2.58l.29.28.72.72.76.79c.73.76 1.38 1.46 2 2.13 1.23 1.37 2.52 2.93 3.86 4.59l1.56 2c.75 1 1.52 2 2.28 3l.43.57c1.16 1.55 2.33 3.13 3.46 4.71l.29.4.13.18.21.3c.44.61.87 1.21 1.29 1.81l.41.59c.12.16.23.32.33.47l.32.45 1.35 2 .91 1.33.35.52.84 1.25c.64.95 1.25 1.86 1.81 2.73.06.09.12.2.2.31l.52.8c.4.61.77 1.2 1.13 1.76.16.27.33.53.49.78l.41.67c.22.35.42.69.61 1s.34.56.48.82c.63 1.11 1.56 2.83 1.44 3.25a.22.22 0 01-.05.08c-.07.06-.24 0-.56-.1h-.08l-.22-.08-.53-.21-.35-.14-2.9-1.19-1.1-.43-.7-.26-.66-.23-.53-.18a1.43 1.43 0 00-.27-.09l-.51-.17h-.1a1 1 0 00-.22-.07l-.31-.09-.55-.15-.91-.24-.9-.22-.3-.07-.45-.1-.25-.05-.57-.12h-.3l-1.87-.34c-.68-.12-1.45-.24-2.21-.34l-.57-.07-1.32-.13c-2.25-.22-4.24-.26-7.63-.28h-7.38c-.5 0-2.18-.07-4.44 0l-4 .15h-.77l-1.62.07-1.72.09c-2.21.1-3.5.17-5.07.29-.89.06-1.86.14-3.3.23h-.81l-1.42.08h-1.06c-.48 0-1.38 0-2.72.13h-.19l-.73.06h-.19c-1.6.12-2.75.26-4.24.49h-.28l-.34.06c-.71.1-1.51.24-2.47.4l-1.07.17c-.75.11-1.22.17-1.78.22-.92.08-1.67.09-2.14.09a.45.45 0 00.15.32l-.51.08-2.39.39-.71.11c-6.22 1-6.83.91-14.2 2.18l-6 1.07-1.44.23-15.26 2.43-.87.14h-.09l-1.8.29-.82.13h-.1l-1.23.2-.85.15-.82.14-1.79.31-6.48 1.16c-3.65.64-7.67 1.35-13 2.33l-7.58 1.41-.32.06c-1.12.2-3.29.61-6.25 1.19-2.56.5-5.71 1.12-9.27 1.88h-.08l-2.26.48-2 .43-.69.15-1 .22-.51.11h-.12l-5.54 1.25-1.47.34h-.04c-3 .64-5.53 1.12-9.06 2.12l-.2.05-.33.09-.18.06h-.35l-1.6.5-.36.11-1.21.36-.53.17-.42.13-3.5 1.09s-1 .33-3.05 1.18a8.45 8.45 0 00-2.34 1.18l-.18.13-.51.39a9.34 9.34 0 00-.81.8l-.21.21a.3.3 0 00-.08.08l-.21.22c-.19.19-.35.36-.49.52v.05l-.19.21-.35.4-1 1.17c-.18.2-.33.37-.45.52l-.26.29c-.12.13-.21.25-.3.34l-.45.51a.65.65 0 00-.11.12l-.06.07-.17.19-.31.36-.41.49a2.9 2.9 0 00-.19.22c-.18.23-.38.48-.65.8l-.25.3-.07.08-.27.33-.47.55-.42.5a2.69 2.69 0 00-.27.32c-.24.29-.3.35-.47.57 0 0-.24.29-.61.77l-.6.81c-.13.18-.28.38-.42.59s-.33.46-.49.7c-.48.71-.94 1.45-1.37 2.18q-.18.29-.33.57c-.34.58-.66 1.15-1 1.72-.2.37-.4.74-.57 1.1s-.51 1-.75 1.48c-.06.13-.13.26-.18.39-.29.6-.56 1.18-.81 1.73-1.19 2.66-1.87 4.55-1.87 4.55-.34.93-.63 1.81-.87 2.6-.16.51-.31 1-.43 1.42-.22.71-.4 1.37-.55 2l-.09.34c-.07.25-.13.49-.19.71s-.18.73-.28 1.16-.14.6-.21.92c-.14.6-.29 1.26-.43 2q-.1.44-.18.9a76.59 76.59 0 00-.66 3.82c-.07.44-.16 1.06-.26 1.95s-.16 1.49-.22 2.07-.08 1-.11 1.51c0 .34-.05.69-.07 1v.65l-.06 1c0 .63-.06 1.32-.09 2.05v1.26c-.06 1.28-.1 2.69-.13 4.25v1.06c-.34 10.79-.09 18.86-.09 18.86 0 1 .29 8.6 1.24 16.47 0 .39.09.78.14 1.17.08.65.16 1.31.25 2v.24c.34 2.64.76 5.6 1.36 8.83.1.56.2 1.12.32 1.7s.18.91.28 1.38a104.28 104.28 0 007.07 22.88l.3.66c3.35 7.43 7.77 17 17.27 26.21q1.62 1.57 3.24 3a37.35 37.35 0 003.19 2.71c.82.6 1.7 1.2 2.46 1.72 1.28.88 2.28 1.52 2.28 1.52l1 .65c4 2.56 7.34 4.27 9.54 5.4l.46.24.31.16 1.33.69a133.59 133.59 0 0020.24 8.56l.25.08c9.12 3.07 19 4.65 37.46 7.42l1.62.25c7.51 1.16 14.1 2.15 21.25 3l.93.12.86.1c2.8.34 5.46.61 8.24.85l.8.07.91.07h.6l1.58.11 1.27.09h.67l1.41.09 1.19.06 1.45.07h.68c4.7.22 8.55.31 11 .34h1.32l11.34.19c7 .11 13.69.14 18.84.14h.49c10.54 0 13.33 0 17.37-.12h3.57l8.49-.09h3.91c1.65 0 2.53-.07 3.69-.11l3.17-.15c1.2-.05 2.3-.11 3.32-.17l2.12-.14 1-.08 1.39-.13.62-.07 1.2-.16c1.09-.16 2.13-.35 3.18-.59 1.58-.34 2.92-.71 4-1h.14c2.61-.69 5.52-1.49 6.64-1.79l4.74-1.32q.28 2.78.51 5.66 0 .4.06.81c.06.73.11 1.47.16 2.22v.3q.09 1.47.18 3v.62c.11 1.32.16 2.62.21 3.89z"/><path d="M513.95 388.63c.57-7.79.84-13.33 1-17.22a359.73 359.73 0 01-2.64 35.93c.57-5.77 1.14-11.86 1.64-18.71zM514.43 343.97c0-.75-.1-1.49-.16-2.22.11.72.11 1.46.16 2.22zm-.22-3.03q-.23-2.88-.51-5.66.29 2.59.51 5.66zm-1.95 66.57c-.79 7.49-1.66 14.46-2.55 21.88-2.36 19.68-4.49 36.5-6.17 49.5l-.3.45c2.14-16.4 5.77-44.78 9.02-71.83zM503.23 479.35c-.55 4.26-1 7.72-1.31 10.13-1.32 10.22-2.77 21.62-5.44 44.44-5.75 49-9.67 79.7-10.43 82.22-.3 1.18-2.12 12.14-3.78 24.44-3.78 26.66-5.44 36.29-8.46 45.33l-2.27 6.81-11.48 1a371.7 371.7 0 01-51.53 0l-13.75-1-.91-6.07c-.45-3.41-3.17-22.37-6-42.37s-5.29-37-5.29-37.92 4.23-2.52 9.52-3.55c21.15-4.3 46.39-15 46.39-19.56 0-.74-28.56-1.18-69.82-.89-78.88.45-77.21.3-81.9 11.41-4.08 10.22-7 38.37-7 69.62l-.15 29.63-4.84 1c-6.5 1.63-75.55.74-92.48-1-21-2.22-20.4-1.93-20.4-10.37 0-10.67-4.23-53.92-7.56-78.36-4.68-33.93-14.65-149.18-17.37-201.47-1.82-35.4 3.32-101.91 11.48-150.35 3.93-22.82 13.3-57.92 22.52-84.44 7.55-21.48 19.49-49 24.18-55.55 1.36-2.07 5.13-8.44 8.16-14.07 7.25-13.63 24.33-34.52 35.21-43.11 15.71-12.3 33.84-19 58.33-21.18 8.23-.75 14.83-1.3 19.25-1.35h3.94a167.69 167.69 0 00-26.22 2.18 120 120 0 00-14.83 2.93 102.31 102.31 0 00-20.14 7.69 91.39 91.39 0 00-17.67 12.06c-1.47 1.27-5.77 5.09-12.92 13.8a220.65 220.65 0 00-17.88 25.27s-19.36 48.6-24.21 95.32-12.51 89.62-10.47 146.55-2 25.79 5.62 97.79 41.36 84.25 41.36 84.25 14.61 11.24 63.86 15.58 116.65 5.62 116.65 5.62 38.33 4 70-27a250.22 250.22 0 0030.04-35.46z"/><path d="M502.18 338.43c-1 .31-2.39.68-4 1l.45-.11c.89-.19 2.17-.52 3.55-.89zm-8.35 1.78l1.2-.16zm-.62.06l-1.39.13zm-2.37.21l1-.08zm-15.94.62l3.5-.05h-2zm.48-221.89a.57.57 0 010 .31c.12-.42-.81-2.14-1.44-3.25a14.17 14.17 0 011.44 2.94zm-.63.3c.32.11.49.16.56.1-.09.08-.28 0-.47-.06zm-4.47-9.07c.18.27.36.54.52.8zm-.2-.31l.2.31c-.08-.11-.14-.23-.2-.31zm.59 7.73l-1.1-.43zm-2.4-10.46l-.84-1.25c.29.42.57.84.84 1.25zm-1.19-1.77l-.91-1.33zm-2.58-3.73l.32.45zm-.74-1.06c.14.2.28.39.41.59zm-.2 14.78l.3.07zm-.45-.1l-.25-.05zm-.85-16.79l.21.3zm-.42-.58l.29.4zm-3.89-5.28l.43.57zm-3.89 248.45l8.56-.09c-4 .08-6.83.14-17.37.12 4.23 0 7.39-.02 8.81-.03zm-5.68-227.19c3.39 0 5.38.06 7.63.28-1.51-.12-3.84-.2-7.63-.28zm1.87-30.8a45.57 45.57 0 00-2-2.13l-.76-.79c.89.8 1.8 1.8 2.76 2.92zm-1.87 30.8zm-.86-33.72l-.72-.72zm-4.14-3.92l-.63-.56zm-1.34-1.2l.35.32a150.71 150.71 0 00-12.86-9.79c2.19 1.43 4.38 2.95 6.37 4.46 1 .74 1.93 1.49 1.93 1.49.93.74 2.44 1.97 4.21 3.52zm-5.42 38.92c2.26-.11 3.94-.06 4.44 0l-3.23.05-2.93.07-2.26.07zm-13.24.61c1.57-.12 2.86-.19 5.07-.29-1.39.09-3.45.23-6 .38l-2.41.14c1.51-.09 2.48-.17 3.34-.23zm-3.8.26h.21-.49zm-2.76.13l-2.91.15h.19c1.34-.15 2.28-.15 2.72-.15zm-1.34-57.8s1.13.61 2.94 1.64c-2.63-1.46-5.65-3-9-4.6 1.96.9 3.96 1.88 6.06 2.96zM413.26 341c-2.48 0-6.33-.12-11-.34 3.29.15 6.81.25 11 .34zm-10.45-224.17c.56-.05 1-.11 1.78-.22l-3.28.55-.49.08a.45.45 0 01-.15-.32c.47 0 1.22-.01 2.14-.09zm.64-65.03l-.42-.18zm-3.14-1.29l-.85-.34zm0 66.81l-2.39.39zm-1.72-67.49l-.94-.36zm-15.16 289.3l-.86-.1-.93-.12zm-21.94-3.09c8.54 1.27 14.69 2.18 20.15 2.87-7.15-.88-13.74-1.87-21.25-3zm15.5-293.15l2.27.64-3.31-.92h-.12zm0 78.18c-1.88.35-3.71.67-6.74 1.16-4.79.77-6.1.9-10 1.5l15.26-2.43zm-16.73 2.66l-.87.14zm-1.15-85.42l-1-.24c-4.26-1-7.91-1.8-11.38-2.5 4.01.78 8.11 1.71 12.38 2.74zm-1.61 85.9l1.8-.29-1.46.24zm0 0l-.82.13zm-.92.11l-1.23.2zm-2.08.35l-.82.14zm-9.18-89.37l1.37.27zm-16.63-2.19h.46zm-1.31-.08a6 6 0 01.61 0zm-4.25-.19c1.44 0 2.85.1 4.25.19-1.21-.07-2.64-.14-4.25-.19zm1.44 97.2l-4.26.82c-4.38.85-7.28 1.41-11.26 2.25 3.56-.76 6.71-1.38 9.27-1.88 2.96-.58 5.13-1.02 6.25-1.19zm-3.51 198.09a133.59 133.59 0 01-20.24-8.56l-1.33-.69a164.67 164.67 0 0021.57 9.25zm-14.35-194.52l2.26-.48zm-1.96.43l-.69.15zm-18.44 4.23c3.53-1 6-1.48 9.06-2.12-5.25 1.19-7.82 1.81-9.06 2.12zm-1.11.33h.07c.07 0-.37.09-1.67.48zm-1.96.61l.36-.11zm-3.1 167.25q-1.62-1.38-3.24-3c-9.5-9.25-13.92-18.78-17.27-26.21.19.41.39.82.59 1.24 6.68 13.95 14.71 23.2 19.92 27.97zm-5.66-164.25l-.21.09a11.57 11.57 0 00-2.13 1.09 8.45 8.45 0 012.34-1.18zm-4.05 2.66l-.08.08a.3.3 0 01.08-.08zm-.29.34c-.17.18-.32.35-.49.52.14-.2.3-.37.49-.52zm-.53.53l-.19.21zm-4.29 4.89a2.9 2.9 0 01.19-.22zm-2.4 2.88a2.69 2.69 0 01.27-.32zm-1.08 1.34c-.16.23-.37.5-.6.81zm-9.67 19.87c-.2.67-.35 1.23-.47 1.68 0 .09-.05.18-.08.28.15-.59.33-1.25.55-1.96zm-.72 76.2c.1.55.21 1.12.32 1.7-.12-.58-.22-1.14-.32-1.7zm-.07-73.19c.06-.22.12-.46.19-.71-.1.19-.19.45-.19.71zm-1.16 65.29c.33 2.28.7 4.94 1.23 7.9-.6-3.23-1-6.19-1.36-8.83.04.31.09.62.13.93zm-1.12-52.49c.06-.58.12-1.28.22-2.07-.1.9-.21 2.06-.33 3.58.03-.51.07-1.01.11-1.51zm-.52 34.11c0 .48.31 7.07 1.09 14.07-1-7.87-1.2-15.44-1.24-16.47 0 0-.25-8.07.09-18.86-.05 2.55-.09 5.47-.09 8.81-.05 5.77-.05 8.65.15 12.45zm.34-31.56c0-.35 0-.7.07-1-.02.29-.04.63-.07 1zm-.04.65c0 .33 0 .67-.06 1zM510.38 207.21a12.45 12.45 0 01-2.16 8.36c-2.63 4-6.7 5.67-8.91 6.48-17.08 6.29-39.88 5.79-44.53 5.67-7.69-.22-11.54-.32-15.65-.81-19.4-2.32-32.84-8.87-44-14.31a89 89 0 01-11.34-7c-6-4.25-7.46-6.28-8.36-8.37-.41-1-2.18-5.05-.54-9.18.62-1.57 1.81-3.29 7.29-6.74 4.22-2.66 7-4.44 12.14-6.21 8.61-3 15.86-3.24 25.64-3.51a169.08 169.08 0 0125.91 1.35c7.53.9 12.4 1.51 18.89 3.51 3.38 1 7.65 2.94 16.19 6.75 10 4.44 13.49 6.42 17 8.9a43.23 43.23 0 018.37 7.83c3.51 4.28 3.91 6.51 4.06 7.28z"/></symbol><symbol viewBox="0 0 512 512" id="arrow" xmlns="http://www.w3.org/2000/svg"><path d="M256 0C114.837 0 0 114.837 0 256s114.837 256 256 256 256-114.837 256-256S397.163 0 256 0zm79.083 271.083L228.416 377.749A21.275 21.275 0 01213.333 384a21.277 21.277 0 01-15.083-6.251c-8.341-8.341-8.341-21.824 0-30.165L289.835 256l-91.584-91.584c-8.341-8.341-8.341-21.824 0-30.165s21.824-8.341 30.165 0l106.667 106.667c8.341 8.341 8.341 21.823 0 30.165z"/></symbol><symbol viewBox="0 0 420.057 420.057" id="controller" xmlns="http://www.w3.org/2000/svg"><path d="M12.81 283.1c6.103 2.333 12.577 3.711 19.204 3.735-4.53 4.761-7.999 10.343-10.525 16.322a210.376 210.376 0 0032.805 48.165c6.516-.112 13.026-1.246 19.161-3.687-2.418 6.104-3.552 12.551-3.679 19.027a210.308 210.308 0 0051.223 33.87c5.919-2.652 11.423-6.239 16.092-10.876.172 6.616 1.681 13.032 4.14 19.063a209.387 209.387 0 0058.601 11.325c4.524-4.685 8.315-10.091 10.936-16.146 2.607 6.027 6.368 11.401 10.866 16.07a209.45 209.45 0 0060.136-12.243c2.316-6.071 3.687-12.519 3.711-19.115 4.801 4.564 10.427 8.043 16.446 10.588 17.641-8.592 33.891-19.58 48.357-32.536-.128-6.469-1.262-12.924-3.687-19.027 6.147 2.44 12.651 3.574 19.167 3.687 14.375-15.829 26.309-33.891 35.357-53.563-2.66-5.951-6.255-11.477-10.912-16.17 6.572-.16 12.965-1.663 18.976-4.083 5.995-17.705 9.738-36.424 10.796-55.876-4.677-4.492-10.043-8.264-16.07-10.868 6.056-2.616 11.462-6.412 16.146-10.932-1.05-22.015-5.49-43.14-12.804-62.869-6.104-2.338-12.571-3.711-19.195-3.739 4.521-4.763 7.994-10.345 10.515-16.316a209 209 0 00-16.113-27.19c-48.727 25.109-156.594 114.032-172.416 120.309 6.274-15.793 94.279-124.076 119.257-173.157a210.768 210.768 0 00-30.236-17.348c-5.919 2.663-11.421 6.239-16.09 10.882-.177-6.612-1.679-13.032-4.132-19.069A209.71 209.71 0 00220.239.012c-4.526 4.689-8.317 10.091-10.938 16.15-2.606-6.029-6.368-11.407-10.868-16.072-21.013 1.146-41.206 5.37-60.139 12.239-2.314 6.075-3.683 12.523-3.705 19.115-4.805-4.561-10.428-8.045-16.449-10.571A210.75 210.75 0 0069.783 53.4c.126 6.47 1.265 12.93 3.679 19.033-6.137-2.442-12.646-3.573-19.162-3.693-14.375 15.835-26.314 33.889-35.365 53.565 2.661 5.949 6.255 11.478 10.914 16.168-6.574.17-12.964 1.669-18.976 4.094-5.991 17.695-9.736 36.416-10.794 55.87 4.669 4.492 10.039 8.261 16.068 10.866-6.058 2.617-11.46 6.412-16.147 10.932 1.06 22.005 5.496 43.132 12.81 62.865z"/></symbol><symbol viewBox="0 0 98.79 98.79" id="handle" xmlns="http://www.w3.org/2000/svg"><path d="M98.78 49.39A49.47 49.47 0 0159.39 97.8a51.1 51.1 0 01-19.92 0 49.42 49.42 0 1159.31-48.41z"/><path d="M27.7 16.46l54.62 54.62a40.28 40.28 0 01-11.24 11.24L16.46 27.7A40.28 40.28 0 0127.7 16.46z"/></symbol><symbol viewBox="0 0 50 50" id="logo" xmlns="http://www.w3.org/2000/svg"><path class="fst0" d="M1.78 24.98h46.44M1.78 32.42h2.53c.55 0 1.1-.44 1.23-.97L10.7 9.3c.12-.54.32-.53.43 0l6.56 31.38c.11.54.31.54.44.01L25.7 9.3c.13-.53.34-.54.48 0l7.9 31.4c.13.53.34.53.46-.01l7.07-31.38c.12-.54.33-.54.47-.01l2.48 9.5c.14.53.7.97 1.25.97h2.39"/></symbol><symbol viewBox="0 0 512.07 388" id="motherboard" xmlns="http://www.w3.org/2000/svg"><path d="M3.99 8h503.97v375.98H3.99z"/><path d="M300 296V192a16 16 0 0116-16h-8a16 16 0 00-16 16v104a16 16 0 0016 16h8a16 16 0 01-16-16z" opacity=".5"/><path d="M420 192v104a16 16 0 01-16 16h8a16 16 0 0016-16V192a16 16 0 00-16-16h-8a16 16 0 0116 16z" opacity=".2"/><path d="M19.99 231.99h183.99v95.99H19.99zM227.98 351.98h263.98v16H227.98zm0-231.99h263.98v16H227.98zm0-31.99h263.98v16H227.98zM19.99 351.98h87.99v16H19.99zM123.99 351.98h16v16h-16zm32 0h16v16h-16zm31.99 0h16v16h-16zm295.99-167.99h8v143.99h-8z"/><path d="M78.43 327.98h24.84L129 231.99h-24.85l-25.72 95.99zm41.41 0l25.72-95.99h-8.28l-25.73 95.99h8.29z" opacity=".5"/><path d="M19.99 64h16v143.99h-16zm80 0h16v143.99h-16zm79.99 0h16v143.99h-16zM251.98 327.98h-8V159.99h8l16 16v135.99l-16 16zM468 192a8 8 0 11-8-8 8 8 0 018 8z"/><path d="M460 192a7.93 7.93 0 014-6.78 7.79 7.79 0 00-4-1.22 8 8 0 000 16 7.79 7.79 0 004-1.22 7.91 7.91 0 01-4-6.78z" opacity=".5"/><circle cx="27.99" cy="32" r="8"/><path d="M28 32a7.91 7.91 0 014-6.78A7.79 7.79 0 0028 24a8 8 0 000 16 7.8 7.8 0 004-1.23A7.88 7.88 0 0128 32z" opacity=".5"/><circle cx="59.99" cy="32" r="8"/><path d="M60 32a7.91 7.91 0 014-6.78A7.79 7.79 0 0060 24a8 8 0 000 16 7.8 7.8 0 004-1.23A7.88 7.88 0 0160 32z" opacity=".5"/><circle cx="91.99" cy="32" r="8"/><path d="M92 32a7.93 7.93 0 014-6.78A7.7 7.7 0 0092 24a8 8 0 000 16 7.8 7.8 0 004-1.23A7.91 7.91 0 0192 32z" opacity=".5"/><circle cx="139.99" cy="72" r="8"/><path d="M140 72a7.86 7.86 0 014-6.77 7.8 7.8 0 00-4-1.23 8 8 0 000 16 7.68 7.68 0 004-1.23 7.86 7.86 0 01-4-6.77z" opacity=".5"/><circle cx="139.99" cy="103.99" r="8"/><path d="M140 104a7.86 7.86 0 014-6.77 7.8 7.8 0 00-4-1.23 8 8 0 000 16 7.8 7.8 0 004-1.23 7.86 7.86 0 01-4-6.77z" opacity=".5"/><circle cx="139.99" cy="135.99" r="8"/><path d="M140 136a7.86 7.86 0 014-6.77 7.68 7.68 0 00-4-1.23 8 8 0 000 16 7.8 7.8 0 004-1.23 7.86 7.86 0 01-4-6.77z" opacity=".5"/><path d="M468 224a8 8 0 11-8-8 8 8 0 018 8zm0 32a8 8 0 11-8-8 8 8 0 018 8zm0 32a8 8 0 11-8-8 8 8 0 018 8zm0 32a8 8 0 11-8-8 8 8 0 018 8z"/><path d="M460 224a7.91 7.91 0 014-6.77 7.8 7.8 0 00-4-1.23 8 8 0 000 16 7.79 7.79 0 004-1.22 7.93 7.93 0 01-4-6.78zm0 32a7.91 7.91 0 014-6.77 7.8 7.8 0 00-4-1.23 8 8 0 000 16 7.8 7.8 0 004-1.23 7.88 7.88 0 01-4-6.77zm0 32a7.88 7.88 0 014-6.77 7.68 7.68 0 00-4-1.23 8 8 0 000 16 7.8 7.8 0 004-1.23 7.91 7.91 0 01-4-6.77zm0 32a7.93 7.93 0 014-6.78 7.88 7.88 0 00-4-1.22 8 8 0 000 16 7.8 7.8 0 004-1.23 7.91 7.91 0 01-4-6.77z" opacity=".5"/><circle cx="67.99" cy="191.99" r="16"/><path d="M60 192a16 16 0 0112-15.44 16 16 0 100 30.87A16 16 0 0160 192z" opacity=".5"/><path d="M115.99 24h80v16h-80zM507.97 40l-32 32H243.98l-31.99-32V8h295.98v32z"/><path d="M227.99 8h-16v32l31.99 32h16l-31.99-32V8z" opacity=".3"/><path d="M491.97 8h16v32l-32 32h-16l32-32V8zM19.99 80h8v111.99h-8zm80 0h8v111.99h-8zm79.99 0h8v111.99h-8z" opacity=".2"/><path d="M243.98 88h8v16h-8zm0 31.99h8v16h-8zM359.97 88h8v16h-8zm0 31.99h8v16h-8zM243.98 351.97h8v16h-8zm115.99 0h8v16h-8z" opacity=".3"/><path d="M131.99 159.99h32v8h-32zm0 24h32v8h-32zm319.98-24h40v8h-40zM75.99 64h8v24h-8zm-24 0h8v24h-8z" opacity=".2"/><path d="M51.99 111.99h8v40h-8z" opacity=".5"/><path d="M75.99 111.99h8v40h-8z" opacity=".2"/><path d="M243.98 159.99h8v167.99h-8z" opacity=".5"/><path d="M259.98 319.98l8-8V175.99l-8-8v151.99z" opacity=".3"/><path d="M115.99 24h8v16h-8z" opacity=".5"/><path d="M187.98 24h8v16h-8z" opacity=".2"/><path d="M19.99 351.98h8v16h-8z" opacity=".3"/><path d="M123.99 351.98h8v16h-8zm32 0h8v16h-8zm31.99 0h8v16h-8z" opacity=".5"/><path d="M99.71 351.98h8v16h-8zM3.99 8h8v375.98h-8z" opacity=".2"/><path d="M507.97 383.98h-8V48l8-8v343.98z" opacity=".3"/><path d="M508 388H4a4 4 0 01-4-4V8a4 4 0 018 0v372h500a4 4 0 010 8zM212 44a4 4 0 01-4-4V8a4 4 0 018 0v32a4 4 0 01-4 4z"/><path d="M244 76a4 4 0 01-2.82-1.17l-32-32a4 4 0 015.65-5.65l32 32A4 4 0 01244 76zm264-32a4 4 0 01-4-4V8a4 4 0 018 0v32a4 4 0 01-4 4z"/><path d="M476 76a4 4 0 01-2.83-6.83l32-32a4 4 0 115.8 5.51l-.14.14-32 32A4 4 0 01476 76z"/><path d="M476 76H244a4 4 0 010-8h232a4 4 0 010 8zm32-64H212a4 4 0 010-8h296a4 4 0 010 8zm-312 0H4a4 4 0 010-8h192a4 4 0 010 8zm312 376a4 4 0 01-4-4V64a4 4 0 018 0v320a4 4 0 01-4 4zM468 44H252a4 4 0 010-8h216a4 4 0 010 8z"/><path d="M492 8h-16a4 4 0 010-8h16a4 4 0 010 8zm-32 0h-24a4 4 0 010-8h24a4 4 0 010 8zm-40 0h-24a4 4 0 010-8h24a4 4 0 010 8zm-40 0h-32a4 4 0 010-8h32a4 4 0 010 8z"/><path d="M348 8h-16a4 4 0 010-8h16a4 4 0 010 8zm-32 0h-8a4 4 0 010-8h8a4 4 0 010 8zm-24 0h-32a4 4 0 010-8h32a4 4 0 010 8zm-48 0h-16a4 4 0 010-8h16a4 4 0 010 8zm248 100H228a4 4 0 01-4-4V88a4 4 0 014-4h264a4 4 0 014 4v16a4 4 0 01-4 4zm-260-8h256v-8H232z"/><path d="M244 108a4 4 0 01-4-4V88a4 4 0 018 0v16a4 4 0 01-4 4zm232 0a4 4 0 01-4-4V88a4 4 0 018 0v16a4 4 0 01-4 4zm-116 0a4 4 0 01-4-4V88a4 4 0 018 0v16a4 4 0 01-4 4zm132 32H228a4 4 0 01-4-4v-16a4 4 0 014-4h264a4 4 0 014 4v16a4 4 0 01-4 4zm-260-8h256v-8H232z"/><path d="M244 140a4 4 0 01-4-4v-16a4 4 0 018 0v16a4 4 0 01-4 4zm232 0a4 4 0 01-4-4v-16a4 4 0 018 0v16a4 4 0 01-4 4zm-116 0a4 4 0 01-4-4v-16a4 4 0 018 0v16a4 4 0 01-4 4zm132 232H228a4 4 0 01-4-4v-16a4 4 0 014-4h264a4 4 0 014 4v16a4 4 0 01-4 4zm-260-8h256v-8H232z"/><path d="M244 372a4 4 0 01-4-4v-16a4 4 0 018 0v16a4 4 0 01-4 4zm232 0a4 4 0 01-4-4v-16a4 4 0 018 0v16a4 4 0 01-4 4zm-116 0a4 4 0 01-4-4v-16a4 4 0 018 0v16a4 4 0 01-4 4zm52.21-176a4 4 0 010-8h.08a4 4 0 010 8zm-104 0a4 4 0 010-8h.07a4 4 0 010 8zm104 104a4 4 0 010-8h.08a4 4 0 010 8zm-104 0a4 4 0 010-8h.07a4 4 0 010 8zM460 236a12 12 0 1112-12 12 12 0 01-12 12zm0-16a4 4 0 104 4 4 4 0 00-4-4zm0-16a12 12 0 1112-12 12 12 0 01-12 12zm0-16a4 4 0 104 4 4 4 0 00-4-4zm0 80a12 12 0 1112-12 12 12 0 01-12 12zm0-16a4 4 0 104 4 4 4 0 00-4-4zm0 48a12 12 0 1112-12 12 12 0 01-12 12zm0-16a4 4 0 104 4 4 4 0 00-4-4zm0 48a12 12 0 1112-12 12 12 0 01-12 12zm0-16a4 4 0 104 4 4 4 0 00-4-4zm24 16a4 4 0 01-4-4V184a4 4 0 018 0v144a4 4 0 01-4 4z"/><path d="M492 188h-8a4 4 0 010-8h8a4 4 0 010 8zm0 144h-8a4 4 0 010-8h8a4 4 0 010 8zm0-168h-40a4 4 0 010-8h40a4 4 0 010 8z"/><path d="M452 172a4 4 0 01-4-4v-8a4 4 0 018 0v8a4 4 0 01-4 4zm40 0a4 4 0 01-4-4v-8a4 4 0 018 0v8a4 4 0 01-4 4zM252 332h-8a4 4 0 01-4-4V160a4 4 0 014-4h8a4 4 0 012.83 1.17l16 16A4 4 0 01272 176v136a4 4 0 01-1.17 2.82l-16 16A4 4 0 01252 332zm-4-8h2.35L264 310.32V177.64L250.33 164H248zm-20 8a4 4 0 01-4-4V160a4 4 0 018 0v168a4 4 0 01-4 4zM28 44a12 12 0 1112-12 12 12 0 01-12 12zm0-16a4 4 0 104 4 4 4 0 00-4-4zm32 16a12 12 0 1112-12 12 12 0 01-12 12zm0-16a4 4 0 104 4 4 4 0 00-4-4zm32 16a12 12 0 1112-12 12 12 0 01-12 12zm0-16a4 4 0 104 4 4 4 0 00-4-4zm48 56a12 12 0 1112-12 12 12 0 01-12 12zm0-16a4 4 0 104 4 4 4 0 00-4-4zm0 48a12 12 0 1112-12 12 12 0 01-12 12zm0-16a4 4 0 104 4 4 4 0 00-4-4zm0 48a12 12 0 1112-12 12 12 0 01-12 12zm0-16a4 4 0 104 4 4 4 0 00-4-4zm56-88h-80a4 4 0 01-4-4V24a4 4 0 014-4h80a4 4 0 014 4v16a4 4 0 01-4 4zm-76-8h72v-8h-72zM36 212H20a4 4 0 01-4-4V64a4 4 0 014-4h16a4 4 0 014 4v144a4 4 0 01-4 4zm-12-8h8V68h-8z"/><path d="M36 196H20a4 4 0 010-8h16a4 4 0 010 8zm0-112H20a4 4 0 010-8h16a4 4 0 010 8zm80 128h-16a4 4 0 01-4-4V64a4 4 0 014-4h16a4 4 0 014 4v144a4 4 0 01-4 4zm-12-8h8V68h-8z"/><path d="M116 196h-16a4 4 0 010-8h16a4 4 0 010 8zm0-112h-16a4 4 0 010-8h16a4 4 0 010 8zm80 128h-16a4 4 0 01-4-4V64a4 4 0 014-4h16a4 4 0 014 4v144a4 4 0 01-4 4zm-12-8h8V68h-8z"/><path d="M196 196h-16a4 4 0 010-8h16a4 4 0 010 8zm0-112h-16a4 4 0 010-8h16a4 4 0 010 8zM68 212a20 20 0 1120-20 20 20 0 01-20 20zm0-32a12 12 0 1012 12 12 12 0 00-12-12zM52 92a4 4 0 01-4-4V64a4 4 0 018 0v24a4 4 0 01-4 4z"/><path d="M60 68h-8a4 4 0 010-8h8a4 4 0 010 8zm0 24h-8a4 4 0 010-8h8a4 4 0 010 8zm16 0a4 4 0 01-4-4V64a4 4 0 018 0v24a4 4 0 01-4 4z"/><path d="M84 68h-8a4 4 0 010-8h8a4 4 0 010 8zm0 24h-8a4 4 0 010-8h8a4 4 0 010 8zm80 56a4 4 0 01-4-4V64a4 4 0 018 0v80a4 4 0 01-4 4zm-32 24a4 4 0 01-4-4v-8a4 4 0 018 0v8a4 4 0 01-4 4z"/><path d="M164 164h-32a4 4 0 010-8h32a4 4 0 010 8z"/><path d="M164 172a4 4 0 01-4-4v-8a4 4 0 018 0v8a4 4 0 01-4 4zm-32 24a4 4 0 01-4-4v-8a4 4 0 018 0v8a4 4 0 01-4 4z"/><path d="M164 188h-32a4 4 0 010-8h32a4 4 0 010 8z"/><path d="M164 196a4 4 0 01-4-4v-8a4 4 0 018 0v8a4 4 0 01-4 4zm0 16h-32a4 4 0 010-8h32a4 4 0 010 8zm40 120H20a4 4 0 01-4-4v-96a4 4 0 014-4h184a4 4 0 014 4v96a4 4 0 01-4 4zm-180-8h176v-88H24z"/><path d="M44 316a4 4 0 01-4-4v-64a4 4 0 018 0v64a4 4 0 01-4 4zm136 0a4 4 0 01-4-4v-64a4 4 0 018 0v64a4 4 0 01-4 4zM20 372a4 4 0 01-4-4v-16a4 4 0 018 0v16a4 4 0 01-4 4z"/><path d="M108 356H20a4 4 0 010-8h88a4 4 0 010 8z"/><path d="M108 372a4 4 0 01-4-4v-16a4 4 0 018 0v16a4 4 0 01-4 4zm16 0a4 4 0 01-4-4v-16a4 4 0 018 0v16a4 4 0 01-4 4z"/><path d="M140 356h-16a4 4 0 010-8h16a4 4 0 010 8z"/><path d="M140 372a4 4 0 01-4-4v-16a4 4 0 018 0v16a4 4 0 01-4 4zm16 0a4 4 0 01-4-4v-16a4 4 0 018 0v16a4 4 0 01-4 4z"/><path d="M172 356h-16a4 4 0 010-8h16a4 4 0 010 8z"/><path d="M172 372a4 4 0 01-4-4v-16a4 4 0 018 0v16a4 4 0 01-4 4zm16 0a4 4 0 01-4-4v-16a4 4 0 018 0v16a4 4 0 01-4 4z"/><path d="M204 356h-16a4 4 0 010-8h16a4 4 0 010 8z"/><path d="M204 372a4 4 0 01-4-4v-16a4 4 0 018 0v16a4 4 0 01-4 4zm-112 0H36a4 4 0 010-8h56a4 4 0 010 8z"/></symbol><symbol viewBox="0 0 91.93 128.71" id="motherboardsChip" xmlns="http://www.w3.org/2000/svg"><path d="M9.17 18.36h73.55v91.93H9.17z"/><path d="M82.74 119.51H9.2a9.2 9.2 0 01-9.23-9.16v-92a9.2 9.2 0 019.2-9.19h73.57a9.2 9.2 0 019.23 9.19v92a9.2 9.2 0 01-9.23 9.16zm-64.35-18.39h55.16V27.58H18.39z"/><path d="M27.58 27.58a9.2 9.2 0 01-9.19-9.23V9.19a9.2 9.2 0 0118.39 0v9.16a9.2 9.2 0 01-9.2 9.23zm0 101.12a9.19 9.19 0 01-9.19-9.19v-9.16a9.2 9.2 0 1118.39 0v9.19a9.19 9.19 0 01-9.2 9.16zM64.36 27.58a9.2 9.2 0 01-9.2-9.2V9.19a9.2 9.2 0 0118.39 0v9.16a9.2 9.2 0 01-9.19 9.23zm0 101.12a9.19 9.19 0 01-9.2-9.19v-9.16a9.2 9.2 0 1118.39 0v9.19a9.19 9.19 0 01-9.19 9.16z"/></symbol><symbol viewBox="0 0 16 22" id="play" xmlns="http://www.w3.org/2000/svg"><path d="M0 2.4v17.2c0 1.9 2 3.1 3.5 2L15 13c1.3-.9 1.3-3 0-3.9L3.5.4C2-.7 0 .5 0 2.4z"/></symbol><symbol viewBox="0 0 244.72 299.11" id="processor" xmlns="http://www.w3.org/2000/svg"><path d="M244.33 239.14a27.29 27.29 0 01-27.2 27.19h-27.19L53.99 293.51v-27.18h-13.6a27.28 27.28 0 01-27.19-27.19V62.42a27.27 27.27 0 0127.19-27.19h27.19l136-27.2v27.2h13.59a27.28 27.28 0 0127.2 27.19z"/><path d="M26.79 239.14V62.42a27.28 27.28 0 0127.2-27.19h-13.6A27.27 27.27 0 0013.2 62.42v176.72a27.28 27.28 0 0027.19 27.19h13.6a27.29 27.29 0 01-27.2-27.19z" opacity=".5"/><path d="M230.73 62.42v176.72a27.28 27.28 0 01-27.19 27.19h13.59a27.29 27.29 0 0027.2-27.19V62.42a27.28 27.28 0 00-27.2-27.19h-13.59a27.28 27.28 0 0127.19 27.19z" opacity=".2"/><path d="M81.18 76.02h95.17v149.55H81.18z"/><path d="M53.99 76.02h27.19v149.55H53.99zm122.35 0h27.19v149.55h-27.19z"/><path d="M81.18 76.02h13.59v149.55H81.18z" opacity=".2"/><path d="M53.99 76.02h13.59v149.55H53.99z" opacity=".7"/><path d="M189.94 76.02h13.59v149.55h-13.59zm-27.2 0h13.59v149.55h-13.59z" opacity=".2"/><path d="M217.53 69.22a6.86 6.86 0 01-6.85-6.8 6.74 6.74 0 016.72-6.8h.13a6.8 6.8 0 110 13.6zm-176.74 0a6.85 6.85 0 01-6.85-6.8 6.73 6.73 0 016.71-6.8h.14a6.8 6.8 0 010 13.6zm176.74 176.74a6.85 6.85 0 01-6.85-6.8 6.74 6.74 0 016.72-6.8h.13a6.8 6.8 0 010 13.6zm-176.74 0a6.84 6.84 0 01-6.85-6.8 6.73 6.73 0 016.71-6.8h.14a6.8 6.8 0 010 13.6zM101.97 103.2a6.85 6.85 0 01-6.85-6.79 6.73 6.73 0 016.77-6.8h.13a6.8 6.8 0 110 13.59zM129.16 103.2a6.85 6.85 0 01-6.85-6.79 6.73 6.73 0 016.72-6.8h.13a6.8 6.8 0 110 13.59zm27.19 0a6.85 6.85 0 01-6.85-6.79 6.74 6.74 0 016.72-6.8h.13a6.8 6.8 0 110 13.59z"/><path d="M101.97 103.2a6.85 6.85 0 01-6.85-6.79 6.73 6.73 0 016.77-6.8h.13a6.8 6.8 0 110 13.59zM101.97 130.4a6.85 6.85 0 01-6.85-6.8 6.73 6.73 0 016.72-6.8h.13a6.8 6.8 0 010 13.6zM129.16 130.4a6.85 6.85 0 01-6.85-6.8 6.73 6.73 0 016.72-6.8h.13a6.8 6.8 0 010 13.6zm27.19 0a6.85 6.85 0 01-6.85-6.8 6.74 6.74 0 016.72-6.8h.13a6.8 6.8 0 010 13.6z"/><path d="M101.97 130.4a6.85 6.85 0 01-6.85-6.8 6.73 6.73 0 016.72-6.8h.13a6.8 6.8 0 010 13.6zM101.97 157.59a6.85 6.85 0 01-6.85-6.8 6.73 6.73 0 016.72-6.8h.13a6.8 6.8 0 010 13.6zM129.16 157.59a6.85 6.85 0 01-6.85-6.8 6.73 6.73 0 016.72-6.8h.13a6.8 6.8 0 010 13.6zm27.19 0a6.85 6.85 0 01-6.85-6.8 6.74 6.74 0 016.72-6.8h.13a6.8 6.8 0 010 13.6z"/><path d="M101.97 157.59a6.85 6.85 0 01-6.85-6.8 6.73 6.73 0 016.72-6.8h.13a6.8 6.8 0 010 13.6zM101.97 184.78a6.85 6.85 0 01-6.85-6.8 6.73 6.73 0 016.72-6.8h.13a6.8 6.8 0 010 13.6zM129.16 184.78a6.85 6.85 0 01-6.85-6.8 6.73 6.73 0 016.72-6.8h.13a6.8 6.8 0 010 13.6zm27.19 0a6.85 6.85 0 01-6.85-6.8 6.74 6.74 0 016.72-6.8h.13a6.8 6.8 0 010 13.6z"/><path d="M101.97 184.78a6.85 6.85 0 01-6.85-6.8 6.73 6.73 0 016.72-6.8h.13a6.8 6.8 0 010 13.6zM101.97 211.97a6.85 6.85 0 01-6.85-6.8 6.73 6.73 0 016.72-6.8h.13a6.8 6.8 0 010 13.6zM129.16 211.97a6.85 6.85 0 01-6.85-6.8 6.73 6.73 0 016.72-6.8h.13a6.8 6.8 0 110 13.6zm27.19 0a6.85 6.85 0 01-6.85-6.8 6.74 6.74 0 016.72-6.8h.13a6.8 6.8 0 010 13.6z"/><path d="M101.97 211.97a6.85 6.85 0 01-6.85-6.8 6.73 6.73 0 016.72-6.8h.13a6.8 6.8 0 010 13.6zM47.59 231.13a6.79 6.79 0 01-6.8-6.8V74.78a6.8 6.8 0 0113.6 0v149.55a6.79 6.79 0 01-6.8 6.8zm149.55 0a6.79 6.79 0 01-6.8-6.8V74.78a6.8 6.8 0 0113.6 0v149.55a6.79 6.79 0 01-6.8 6.8z"/><path d="M74.78 271.91H33.99a34 34 0 01-34-34V61.18a34 34 0 0134-34 6.8 6.8 0 110 13.6 20.41 20.41 0 00-20.39 20.4v176.74a20.42 20.42 0 0020.39 20.4h40.79a6.8 6.8 0 110 13.59zm135.96 0a6.8 6.8 0 110-13.59 20.42 20.42 0 0020.39-20.4V61.18a20.41 20.41 0 00-20.39-20.39h-40.79a6.8 6.8 0 010-13.6h40.79a34 34 0 0134 34v176.73a34 34 0 01-34 33.99zM61.18 40.79a6.8 6.8 0 01-1.29-13.47L195.81.13a6.82 6.82 0 012.66 13.38l-136 27.2a6.81 6.81 0 01-1.29.08z"/><path d="M197.14 40.79a6.79 6.79 0 01-6.8-6.8V6.8a6.8 6.8 0 1113.6 0v27.19a6.79 6.79 0 01-6.8 6.8zM47.59 299.11a6.8 6.8 0 01-1.33-13.47l136-27.19a6.8 6.8 0 012.63 13.33l-136 27.19a6.12 6.12 0 01-1.3.14z"/><path d="M47.59 299.11a6.79 6.79 0 01-6.8-6.8v-27.2a6.8 6.8 0 0113.6 0v27.2a6.79 6.79 0 01-6.8 6.8zm27.19-67.98a6.79 6.79 0 01-6.8-6.8V74.78a6.8 6.8 0 0113.6 0v149.55a6.8 6.8 0 01-6.8 6.8zm95.17 0a6.79 6.79 0 01-6.8-6.8V74.78a6.8 6.8 0 0113.6 0v149.55a6.8 6.8 0 01-6.8 6.8z"/><path d="M74.78 231.13H47.59a6.8 6.8 0 010-13.6h27.19a6.8 6.8 0 010 13.6zm122.36 0h-27.19a6.8 6.8 0 010-13.6h27.19a6.8 6.8 0 110 13.6zm0-149.55h-27.19a6.8 6.8 0 010-13.6h27.19a6.8 6.8 0 110 13.6zm-122.36 0H47.59a6.8 6.8 0 010-13.6h27.19a6.8 6.8 0 010 13.6z"/><path d="M156.35 81.58h-68a6.8 6.8 0 010-13.6h68a6.8 6.8 0 010 13.6zm0 149.55h-68a6.8 6.8 0 010-13.6h68a6.8 6.8 0 110 13.6z"/></symbol><symbol viewBox="0 0 17.94 31.68" id="smartphone" xmlns="http://www.w3.org/2000/svg"><path d="M15.64 0H2.31A2.3 2.3 0 000 2.31v27.07a2.3 2.3 0 002.31 2.3h13.33a2.3 2.3 0 002.3-2.3V2.31A2.3 2.3 0 0015.64 0zm.57 25.67H1.73V3.89h14.48zM12.06 2.34H5.88v-.67h6.18v.67zM14.71 2a.6.6 0 01-.59.59.59.59 0 01-.59-.59.59.59 0 111.18 0z"/></symbol><symbol viewBox="0 0 446.47 384.45" id="tv" xmlns="http://www.w3.org/2000/svg"><path d="M223.24 0a23.81 23.81 0 00-23.82 23.81h47.67A23.81 23.81 0 00223.24 0zM29.77 330.67v35.92a17.85 17.85 0 0017.85 17.86h351.23a17.86 17.86 0 0017.86-17.86v-35.92z"/><path d="M433.98 357.16H12.49A12.49 12.49 0 010 344.67V48.21a12.49 12.49 0 0112.49-12.49h421.49a12.49 12.49 0 0112.49 12.49v296.48a12.49 12.49 0 01-12.49 12.47z"/><path d="M351.23 208.31h71.44v8.93h-71.44zm0 26.79h71.44v8.93h-71.44zm0 26.78h71.44v8.93h-71.44zm0 26.79h71.44v8.93h-71.44zM282.77 35.72H163.71v-5.37a12.49 12.49 0 0112.49-12.49h94.08a12.49 12.49 0 0112.49 12.49v5.37z"/></symbol><symbol viewBox="0 0 18 22" id="volume" xmlns="http://www.w3.org/2000/svg"><path d="M15.9.3L7.4 6.6C6.7 6.2 5.9 6 5 6c-2.8 0-5 2.2-5 5s2.2 5 5 5c.9 0 1.7-.2 2.4-.6l8.5 6.4c.9.7 2.1 0 2.1-1.1V1.4C18 .3 16.8-.4 15.9.3z"/></symbol><symbol viewBox="0 0 843.14 871.88" id="way" xmlns="http://www.w3.org/2000/svg"><path d="M160.64 11.19c295.08 30.73 659.28 25.99 649.01 134.33C797.56 273.63 12.83 163.21 8.46 329.6c-4 153.56 816.06 53.61 834.24 210.21 21.38 184.11-743.34 67.41-782.06 196.53C15.52 886.83 535.28 842.21 660.5 852"/><path d="M645.31 841.5h20.6v20.6h-20.6z"/><circle cx="655.61" cy="851.79" r="10"/><path d="M525.88 840.44h20.6v20.6h-20.6z"/><circle cx="536.17" cy="850.74" r="10"/><path d="M406.41 840.62h20.6v20.6h-20.6z"/><circle cx="416.71" cy="850.91" r="10"/><path d="M287.02 836.66h20.6v20.6h-20.6z"/><circle cx="297.32" cy="846.96" r="10"/><path d="M168.51 822.43h20.6v20.6h-20.6z"/><circle cx="178.81" cy="832.73" r="10"/><path d="M60.58 776.09h20.6v20.6h-20.6z"/><circle cx="70.88" cy="786.38" r="10"/><path d="M101.01 686.96h20.6v20.6h-20.6z"/><circle cx="111.31" cy="697.26" r="10"/><path d="M217.87 663.67h20.6v20.6h-20.6z"/><circle cx="228.17" cy="673.97" r="10"/><path d="M336.99 654.72h20.6v20.6h-20.6z"/><circle cx="347.29" cy="665.02" r="10"/><path d="M456.3 648.76h20.6v20.6h-20.6z"/><circle cx="466.6" cy="659.05" r="10"/><path d="M575.51 641.04h20.6v20.6h-20.6z"/><circle cx="585.81" cy="651.34" r="10"/><path d="M693.98 626.08h20.6v20.6h-20.6z"/><circle cx="704.28" cy="636.38" r="10"/><path d="M805.13 585.36h20.6v20.6h-20.6z"/><circle cx="815.42" cy="595.66" r="10"/><path d="M800.56 487.53h20.6v20.6h-20.6z"/><circle cx="810.86" cy="497.83" r="10"/><path d="M687.41 451.45h20.6v20.6h-20.6z"/><circle cx="697.71" cy="461.74" r="10"/><path d="M569.03 435.78h20.6v20.6h-20.6z"/><circle cx="579.33" cy="446.07" r="10"/><path d="M449.96 426.2h20.6v20.6h-20.6z"/><circle cx="460.26" cy="436.5" r="10"/><path d="M330.78 418.01h20.6v20.6h-20.6z"/><circle cx="341.07" cy="428.3" r="10"/><path d="M211.77 407.56h20.6v20.6h-20.6z"/><circle cx="222.07" cy="417.86" r="10"/><path d="M94.01 388.04h20.6v20.6h-20.6z"/><circle cx="104.31" cy="398.34" r="10"/><path d="M0 325.72h20.6v20.6H0z"/><circle cx="10.3" cy="336.02" r="10"/><path d="M78.58 250.36h20.6v20.6h-20.6z"/><circle cx="88.87" cy="260.66" r="10"/><path d="M195.59 227.38h20.6v20.6h-20.6z"/><circle cx="205.88" cy="237.68" r="10"/><path d="M314.6 217.26h20.6v20.6h-20.6z"/><circle cx="324.9" cy="227.56" r="10"/><path d="M433.91 211.18h20.6v20.6h-20.6z"/><circle cx="444.2" cy="221.48" r="10"/><path d="M553.21 205.05h20.6v20.6h-20.6z"/><circle cx="563.51" cy="215.35" r="10"/><path d="M672.11 193.92h20.6v20.6h-20.6z"/><circle cx="682.41" cy="204.22" r="10"/><path d="M784.68 158.54h20.6v20.6h-20.6z"/><circle cx="794.98" cy="168.84" r="10"/><path d="M741.84 72.76h20.6v20.6h-20.6z"/><circle cx="752.14" cy="83.06" r="10"/><path d="M626.13 44.35h20.6v20.6h-20.6z"/><circle cx="636.43" cy="54.64" r="10"/><path d="M507.5 30.37h20.6v20.6h-20.6z"/><circle cx="517.8" cy="40.67" r="10"/><path d="M388.46 20.46h20.6v20.6h-20.6z"/><circle cx="398.75" cy="30.76" r="10"/><path d="M269.33 11.49h20.6v20.6h-20.6z"/><circle cx="279.63" cy="21.79" r="10"/><path d="M150.34.88h20.6v20.6h-20.6z"/><circle cx="160.64" cy="11.18" r="10"/><path d="M612.21 31.36h51.08v51.08h-51.08z"/><circle cx="637.75" cy="56.89" r="25"/><path d="M421.23 196.8h51.08v51.08h-51.08z"/><circle cx="446.77" cy="222.34" r="25"/><path d="M77.06 372.46h51.08v51.08H77.06z"/><circle cx="102.6" cy="398" r="25"/><path d="M670.42 439.87h51.08v51.08h-51.08z"/><circle cx="695.96" cy="465.41" r="25"/><path d="M443.7 634.93h51.08v51.08H443.7z"/><circle cx="469.24" cy="660.47" r="25"/><path d="M270.08 820.8h51.08v51.08h-51.08z"/><circle cx="295.62" cy="846.34" r="25"/><path d="M147.83 0h25.96v25.96h-25.96z"/><circle cx="160.81" cy="12.98" r="12.5"/><path d="M643.15 838.47h25.96v25.96h-25.96z"/><circle cx="656.13" cy="851.45" r="12.5"/></symbol></svg>