<svg id="Слой_1" data-name="Слой 1" xmlns="http://www.w3.org/2000/svg" viewBox="0 0 843.14 871.88">
	<title>way</title>
	<path
		d="M308.72,36.27C603.8,67,968,62.26,957.73,170.6c-12.09,128.11-796.82,17.69-801.19,184.08-4,153.56,816.06,53.61,834.24,210.21C1012.16,749,247.44,632.3,208.72,761.42,163.6,911.91,683.36,867.29,808.58,877.08"
		transform="translate(-148.08 -25.08)" fill="#fff" />
	<rect x="645.31" y="841.5" width="20.6" height="20.6" fill="none" />
	<circle cx="655.61" cy="851.79" r="10" stroke="#000" stroke-miterlimit="10" stroke-width="0.6" />
	<rect x="525.88" y="840.44" width="20.6" height="20.6" fill="none" />
	<circle cx="536.17" cy="850.74" r="10" stroke="#000" stroke-miterlimit="10" stroke-width="0.6" />
	<rect x="406.41" y="840.62" width="20.6" height="20.6" fill="none" />
	<circle cx="416.71" cy="850.91" r="10" stroke="#000" stroke-miterlimit="10" stroke-width="0.6" />
	<rect x="287.02" y="836.66" width="20.6" height="20.6" fill="none" />
	<circle cx="297.32" cy="846.96" r="10" stroke="#000" stroke-miterlimit="10" stroke-width="0.6" />
	<rect x="168.51" y="822.43" width="20.6" height="20.6" fill="none" />
	<circle cx="178.81" cy="832.73" r="10" stroke="#000" stroke-miterlimit="10" stroke-width="0.6" />
	<rect x="60.58" y="776.09" width="20.6" height="20.6" fill="none" />
	<circle cx="70.88" cy="786.38" r="10" stroke="#000" stroke-miterlimit="10" stroke-width="0.6" />
	<rect x="101.01" y="686.96" width="20.6" height="20.6" fill="none" />
	<circle cx="111.31" cy="697.26" r="10" stroke="#000" stroke-miterlimit="10" stroke-width="0.6" />
	<rect x="217.87" y="663.67" width="20.6" height="20.6" fill="none" />
	<circle cx="228.17" cy="673.97" r="10" stroke="#000" stroke-miterlimit="10" stroke-width="0.6" />
	<rect x="336.99" y="654.72" width="20.6" height="20.6" fill="none" />
	<circle cx="347.29" cy="665.02" r="10" stroke="#000" stroke-miterlimit="10" stroke-width="0.6" />
	<rect x="456.3" y="648.76" width="20.6" height="20.6" fill="none" />
	<circle cx="466.6" cy="659.05" r="10" stroke="#000" stroke-miterlimit="10" stroke-width="0.6" />
	<rect x="575.51" y="641.04" width="20.6" height="20.6" fill="none" />
	<circle cx="585.81" cy="651.34" r="10" stroke="#000" stroke-miterlimit="10" stroke-width="0.6" />
	<rect x="693.98" y="626.08" width="20.6" height="20.6" fill="none" />
	<circle cx="704.28" cy="636.38" r="10" stroke="#000" stroke-miterlimit="10" stroke-width="0.6" />
	<rect x="805.13" y="585.36" width="20.6" height="20.6" fill="none" />
	<circle cx="815.42" cy="595.66" r="10" stroke="#000" stroke-miterlimit="10" stroke-width="0.6" />
	<rect x="800.56" y="487.53" width="20.6" height="20.6" fill="none" />
	<circle cx="810.86" cy="497.83" r="10" stroke="#000" stroke-miterlimit="10" stroke-width="0.6" />
	<rect x="687.41" y="451.45" width="20.6" height="20.6" fill="none" />
	<circle cx="697.71" cy="461.74" r="10" stroke="#000" stroke-miterlimit="10" stroke-width="0.6" />
	<rect x="569.03" y="435.78" width="20.6" height="20.6" fill="none" />
	<circle cx="579.33" cy="446.07" r="10" stroke="#000" stroke-miterlimit="10" stroke-width="0.6" />
	<rect x="449.96" y="426.2" width="20.6" height="20.6" fill="none" />
	<circle cx="460.26" cy="436.5" r="10" stroke="#000" stroke-miterlimit="10" stroke-width="0.6" />
	<rect x="330.78" y="418.01" width="20.6" height="20.6" fill="none" />
	<circle cx="341.07" cy="428.3" r="10" stroke="#000" stroke-miterlimit="10" stroke-width="0.6" />
	<rect x="211.77" y="407.56" width="20.6" height="20.6" fill="none" />
	<circle cx="222.07" cy="417.86" r="10" stroke="#000" stroke-miterlimit="10" stroke-width="0.6" />
	<rect x="94.01" y="388.04" width="20.6" height="20.6" fill="none" />
	<circle cx="104.31" cy="398.34" r="10" stroke="#000" stroke-miterlimit="10" stroke-width="0.6" />
	<rect y="325.72" width="20.6" height="20.6" fill="none" />
	<circle cx="10.3" cy="336.02" r="10" stroke="#000" stroke-miterlimit="10" stroke-width="0.6" />
	<rect x="78.58" y="250.36" width="20.6" height="20.6" fill="none" />
	<circle cx="88.87" cy="260.66" r="10" stroke="#000" stroke-miterlimit="10" stroke-width="0.6" />
	<rect x="195.59" y="227.38" width="20.6" height="20.6" fill="none" />
	<circle cx="205.88" cy="237.68" r="10" stroke="#000" stroke-miterlimit="10" stroke-width="0.6" />
	<rect x="314.6" y="217.26" width="20.6" height="20.6" fill="none" />
	<circle cx="324.9" cy="227.56" r="10" stroke="#000" stroke-miterlimit="10" stroke-width="0.6" />
	<rect x="433.91" y="211.18" width="20.6" height="20.6" fill="none" />
	<circle cx="444.2" cy="221.48" r="10" stroke="#000" stroke-miterlimit="10" stroke-width="0.6" />
	<rect x="553.21" y="205.05" width="20.6" height="20.6" fill="none" />
	<circle cx="563.51" cy="215.35" r="10" stroke="#000" stroke-miterlimit="10" stroke-width="0.6" />
	<rect x="672.11" y="193.92" width="20.6" height="20.6" fill="none" />
	<circle cx="682.41" cy="204.22" r="10" stroke="#000" stroke-miterlimit="10" stroke-width="0.6" />
	<rect x="784.68" y="158.54" width="20.6" height="20.6" fill="none" />
	<circle cx="794.98" cy="168.84" r="10" stroke="#000" stroke-miterlimit="10" stroke-width="0.6" />
	<rect x="741.84" y="72.76" width="20.6" height="20.6" fill="none" />
	<circle cx="752.14" cy="83.06" r="10" stroke="#000" stroke-miterlimit="10" stroke-width="0.6" />
	<rect x="626.13" y="44.35" width="20.6" height="20.6" fill="none" />
	<circle cx="636.43" cy="54.64" r="10" stroke="#000" stroke-miterlimit="10" stroke-width="0.6" />
	<rect x="507.5" y="30.37" width="20.6" height="20.6" fill="none" />
	<circle cx="517.8" cy="40.67" r="10" stroke="#000" stroke-miterlimit="10" stroke-width="0.6" />
	<rect x="388.46" y="20.46" width="20.6" height="20.6" fill="none" />
	<circle cx="398.75" cy="30.76" r="10" stroke="#000" stroke-miterlimit="10" stroke-width="0.6" />
	<rect x="269.33" y="11.49" width="20.6" height="20.6" fill="none" />
	<circle cx="279.63" cy="21.79" r="10" stroke="#000" stroke-miterlimit="10" stroke-width="0.6" />
	<rect x="150.34" y="0.88" width="20.6" height="20.6" fill="none" />
	<circle cx="160.64" cy="11.18" r="10" stroke="#000" stroke-miterlimit="10" stroke-width="0.6" />
	<rect x="612.21" y="31.36" width="51.08" height="51.08" fill="none" />
	<circle cx="637.75" cy="56.89" r="25" stroke="#000" stroke-miterlimit="10" stroke-width="1.08" />
	<rect x="421.23" y="196.8" width="51.08" height="51.08" fill="none" />
	<circle cx="446.77" cy="222.34" r="25" stroke="#000" stroke-miterlimit="10" stroke-width="1.08" />
	<rect x="77.06" y="372.46" width="51.08" height="51.08" fill="none" />
	<circle cx="102.6" cy="398" r="25" stroke="#000" stroke-miterlimit="10" stroke-width="1.08" />
	<rect x="670.42" y="439.87" width="51.08" height="51.08" fill="none" />
	<circle cx="695.96" cy="465.41" r="25" stroke="#000" stroke-miterlimit="10" stroke-width="1.08" />
	<rect x="443.7" y="634.93" width="51.08" height="51.08" fill="none" />
	<circle cx="469.24" cy="660.47" r="25" stroke="#000" stroke-miterlimit="10" stroke-width="1.08" />
	<rect x="270.08" y="820.8" width="51.08" height="51.08" fill="none" />
	<circle cx="295.62" cy="846.34" r="25" stroke="#000" stroke-miterlimit="10" stroke-width="1.08" />
	<rect x="147.83" width="25.96" height="25.96" fill="none" />
	<circle cx="160.81" cy="12.98" r="12.5" stroke="#000" stroke-miterlimit="10" stroke-width="0.96" />
	<rect x="643.15" y="838.47" width="25.96" height="25.96" fill="none" />
	<circle cx="656.13" cy="851.45" r="12.5" stroke="#000" stroke-miterlimit="10" stroke-width="0.96" />
</svg>